solid csg.js
facet normal 0 -1 0
outer loop
vertex 0.1950903220161283 -1 -0.9807852804032303
vertex 0.38268343236509 -1 -0.9238795325112865
vertex 0.5555702330196018 -1 -0.8314696123025452
endloop
endfacet
facet normal 0 -1 0
outer loop
vertex 0.1950903220161283 -1 -0.9807852804032303
vertex 0.5555702330196018 -1 -0.8314696123025452
vertex 0.7071067811865474 -1 -0.7071067811865475
endloop
endfacet
facet normal 0 -1 0
outer loop
vertex 0.1950903220161283 -1 -0.9807852804032303
vertex 0.7071067811865474 -1 -0.7071067811865475
vertex 0.8314696123025452 -1 -0.5555702330196015
endloop
endfacet
facet normal 0 -1 0
outer loop
vertex 0.1950903220161283 -1 -0.9807852804032303
vertex 0.8314696123025452 -1 -0.5555702330196015
vertex 0.9238795325112865 -1 -0.3826834323650892
endloop
endfacet
facet normal 0 -1 0
outer loop
vertex 0.1950903220161283 -1 -0.9807852804032303
vertex 0.9238795325112865 -1 -0.3826834323650892
vertex 0.9807852804032303 -1 -0.1950903220161288
endloop
endfacet
facet normal 0 -1 0
outer loop
vertex 0.1950903220161283 -1 -0.9807852804032303
vertex 0.9807852804032303 -1 -0.1950903220161288
vertex 1 -1 0
endloop
endfacet
facet normal 0 -1 0
outer loop
vertex 0.1950903220161283 -1 -0.9807852804032303
vertex 1 -1 0
vertex 0.9807852804032304 -1 0.19509032201612825
endloop
endfacet
facet normal 0 -1 0
outer loop
vertex 0.1950903220161283 -1 -0.9807852804032303
vertex 0.9807852804032304 -1 0.19509032201612825
vertex 0.9238795325112867 -1 0.3826834323650898
endloop
endfacet
facet normal 0 -1 0
outer loop
vertex 0.1950903220161283 -1 -0.9807852804032303
vertex 0.9238795325112867 -1 0.3826834323650898
vertex 0.8314696123025452 -1 0.5555702330196022
endloop
endfacet
facet normal 0 -1 0
outer loop
vertex 0.1950903220161283 -1 -0.9807852804032303
vertex 0.8314696123025452 -1 0.5555702330196022
vertex 0.7071067811865476 -1 0.7071067811865475
endloop
endfacet
facet normal 0 -1 0
outer loop
vertex 0.1950903220161283 -1 -0.9807852804032303
vertex 0.7071067811865476 -1 0.7071067811865475
vertex 0.5555702330196023 -1 0.8314696123025452
endloop
endfacet
facet normal 0 -1 0
outer loop
vertex 0.1950903220161283 -1 -0.9807852804032303
vertex 0.5555702330196023 -1 0.8314696123025452
vertex 0.38268343236508984 -1 0.9238795325112867
endloop
endfacet
facet normal 0 -1 0
outer loop
vertex 0.1950903220161283 -1 -0.9807852804032303
vertex 0.38268343236508984 -1 0.9238795325112867
vertex 0.19509032201612833 -1 0.9807852804032304
endloop
endfacet
facet normal 0 -1 0
outer loop
vertex 0.1950903220161283 -1 -0.9807852804032303
vertex 0.19509032201612833 -1 0.9807852804032304
vertex 5.551115123125783e-17 -1 1
endloop
endfacet
facet normal 0 -1 0
outer loop
vertex 0.1950903220161283 -1 -0.9807852804032303
vertex 5.551115123125783e-17 -1 1
vertex -0.19509032201612797 -1 0.9807852804032304
endloop
endfacet
facet normal 0 -1 0
outer loop
vertex 0.1950903220161283 -1 -0.9807852804032303
vertex -0.19509032201612797 -1 0.9807852804032304
vertex -0.3826834323650897 -1 0.9238795325112867
endloop
endfacet
facet normal 0 -1 0
outer loop
vertex 0.1950903220161283 -1 -0.9807852804032303
vertex -0.3826834323650897 -1 0.9238795325112867
vertex -0.555570233019602 -1 0.8314696123025452
endloop
endfacet
facet normal 0 -1 0
outer loop
vertex 0.1950903220161283 -1 -0.9807852804032303
vertex -0.555570233019602 -1 0.8314696123025452
vertex -0.7071067811865475 -1 0.7071067811865475
endloop
endfacet
facet normal 0 -1 0
outer loop
vertex 0.1950903220161283 -1 -0.9807852804032303
vertex -0.7071067811865475 -1 0.7071067811865475
vertex -0.8314696123025453 -1 0.5555702330196022
endloop
endfacet
facet normal 0 -1 0
outer loop
vertex 0.1950903220161283 -1 -0.9807852804032303
vertex -0.8314696123025453 -1 0.5555702330196022
vertex -0.9238795325112867 -1 0.3826834323650898
endloop
endfacet
facet normal 0 -1 0
outer loop
vertex 0.1950903220161283 -1 -0.9807852804032303
vertex -0.9238795325112867 -1 0.3826834323650898
vertex -0.9807852804032304 -1 0.19509032201612825
endloop
endfacet
facet normal 0 -1 0
outer loop
vertex 0.1950903220161283 -1 -0.9807852804032303
vertex -0.9807852804032304 -1 0.19509032201612825
vertex -1 -1 0
endloop
endfacet
facet normal 0 -1 0
outer loop
vertex 0.1950903220161283 -1 -0.9807852804032303
vertex -1 -1 0
vertex -0.9807852804032303 -1 -0.1950903220161288
endloop
endfacet
facet normal 0 -1 0
outer loop
vertex 0.1950903220161283 -1 -0.9807852804032303
vertex -0.9807852804032303 -1 -0.1950903220161288
vertex -0.923879532511287 -1 -0.3826834323650892
endloop
endfacet
facet normal 0 -1 0
outer loop
vertex 0.1950903220161283 -1 -0.9807852804032303
vertex -0.923879532511287 -1 -0.3826834323650892
vertex -0.8314696123025457 -1 -0.5555702330196015
endloop
endfacet
facet normal 0 -1 0
outer loop
vertex 0.1950903220161283 -1 -0.9807852804032303
vertex -0.8314696123025457 -1 -0.5555702330196015
vertex -0.7071067811865477 -1 -0.7071067811865475
endloop
endfacet
facet normal 0 -1 0
outer loop
vertex 0.1950903220161283 -1 -0.9807852804032303
vertex -0.7071067811865477 -1 -0.7071067811865475
vertex -0.5555702330196022 -1 -0.8314696123025452
endloop
endfacet
facet normal 0 -1 0
outer loop
vertex 0.1950903220161283 -1 -0.9807852804032303
vertex -0.5555702330196022 -1 -0.8314696123025452
vertex -0.38268343236509034 -1 -0.9238795325112865
endloop
endfacet
facet normal 0 -1 0
outer loop
vertex 0.1950903220161283 -1 -0.9807852804032303
vertex -0.38268343236509034 -1 -0.9238795325112865
vertex -0.19509032201612866 -1 -0.9807852804032303
endloop
endfacet
facet normal 0 -1 0
outer loop
vertex 0.1950903220161283 -1 -0.9807852804032303
vertex -0.19509032201612866 -1 -0.9807852804032303
vertex -1.8369701987210297e-16 -1 -1
endloop
endfacet
facet normal 0.9951847266721969 0 0.09801714032956071
outer loop
vertex 0.9807852804032304 -1 0.19509032201612825
vertex 1 -1 0
vertex 1 1 0
endloop
endfacet
facet normal 0.9951847266721969 0 0.09801714032956071
outer loop
vertex 0.9807852804032304 -1 0.19509032201612825
vertex 1 1 0
vertex 0.9807852804032304 1 0.19509032201612825
endloop
endfacet
facet normal 0 1 0
outer loop
vertex 0.19509032201612833 1 0.9807852804032304
vertex 0.38268343236508984 1 0.9238795325112867
vertex 0.5555702330196023 1 0.8314696123025452
endloop
endfacet
facet normal 0 1 0
outer loop
vertex 0.19509032201612833 1 0.9807852804032304
vertex 0.5555702330196023 1 0.8314696123025452
vertex 0.7071067811865476 1 0.7071067811865475
endloop
endfacet
facet normal 0 1 0
outer loop
vertex 0.19509032201612833 1 0.9807852804032304
vertex 0.7071067811865476 1 0.7071067811865475
vertex 0.8314696123025452 1 0.5555702330196022
endloop
endfacet
facet normal 0 1 0
outer loop
vertex 0.19509032201612833 1 0.9807852804032304
vertex 0.8314696123025452 1 0.5555702330196022
vertex 0.9238795325112867 1 0.3826834323650898
endloop
endfacet
facet normal 0 1 0
outer loop
vertex 0.19509032201612833 1 0.9807852804032304
vertex 0.9238795325112867 1 0.3826834323650898
vertex 0.9807852804032304 1 0.19509032201612825
endloop
endfacet
facet normal 0 1 0
outer loop
vertex 0.19509032201612833 1 0.9807852804032304
vertex 0.9807852804032304 1 0.19509032201612825
vertex 1 1 0
endloop
endfacet
facet normal 0 1 0
outer loop
vertex 0.19509032201612833 1 0.9807852804032304
vertex 1 1 0
vertex 0.9807852804032303 1 -0.1950903220161288
endloop
endfacet
facet normal 0 1 0
outer loop
vertex 0.19509032201612833 1 0.9807852804032304
vertex 0.9807852804032303 1 -0.1950903220161288
vertex 0.9238795325112865 1 -0.3826834323650892
endloop
endfacet
facet normal 0 1 0
outer loop
vertex 0.19509032201612833 1 0.9807852804032304
vertex 0.9238795325112865 1 -0.3826834323650892
vertex 0.8314696123025452 1 -0.5555702330196015
endloop
endfacet
facet normal 0 1 0
outer loop
vertex 0.19509032201612833 1 0.9807852804032304
vertex 0.8314696123025452 1 -0.5555702330196015
vertex 0.7071067811865474 1 -0.7071067811865475
endloop
endfacet
facet normal 0 1 0
outer loop
vertex 0.19509032201612833 1 0.9807852804032304
vertex 0.7071067811865474 1 -0.7071067811865475
vertex 0.5555702330196018 1 -0.8314696123025452
endloop
endfacet
facet normal 0 1 0
outer loop
vertex 0.19509032201612833 1 0.9807852804032304
vertex 0.5555702330196018 1 -0.8314696123025452
vertex 0.38268343236509 1 -0.9238795325112865
endloop
endfacet
facet normal 0 1 0
outer loop
vertex 0.19509032201612833 1 0.9807852804032304
vertex 0.38268343236509 1 -0.9238795325112865
vertex 0.1950903220161283 1 -0.9807852804032303
endloop
endfacet
facet normal 0 1 0
outer loop
vertex 0.19509032201612833 1 0.9807852804032304
vertex 0.1950903220161283 1 -0.9807852804032303
vertex -1.942890293094024e-16 1 -1
endloop
endfacet
facet normal 0 1 0
outer loop
vertex 0.19509032201612833 1 0.9807852804032304
vertex -1.942890293094024e-16 1 -1
vertex -0.19509032201612866 1 -0.9807852804032303
endloop
endfacet
facet normal 0 1 0
outer loop
vertex 0.19509032201612833 1 0.9807852804032304
vertex -0.19509032201612866 1 -0.9807852804032303
vertex -0.38268343236509034 1 -0.9238795325112865
endloop
endfacet
facet normal 0 1 0
outer loop
vertex 0.19509032201612833 1 0.9807852804032304
vertex -0.38268343236509034 1 -0.9238795325112865
vertex -0.5555702330196022 1 -0.8314696123025452
endloop
endfacet
facet normal 0 1 0
outer loop
vertex 0.19509032201612833 1 0.9807852804032304
vertex -0.5555702330196022 1 -0.8314696123025452
vertex -0.7071067811865477 1 -0.7071067811865475
endloop
endfacet
facet normal 0 1 0
outer loop
vertex 0.19509032201612833 1 0.9807852804032304
vertex -0.7071067811865477 1 -0.7071067811865475
vertex -0.8314696123025457 1 -0.5555702330196015
endloop
endfacet
facet normal 0 1 0
outer loop
vertex 0.19509032201612833 1 0.9807852804032304
vertex -0.8314696123025457 1 -0.5555702330196015
vertex -0.923879532511287 1 -0.3826834323650892
endloop
endfacet
facet normal 0 1 0
outer loop
vertex 0.19509032201612833 1 0.9807852804032304
vertex -0.923879532511287 1 -0.3826834323650892
vertex -0.9807852804032303 1 -0.1950903220161288
endloop
endfacet
facet normal 0 1 0
outer loop
vertex 0.19509032201612833 1 0.9807852804032304
vertex -0.9807852804032303 1 -0.1950903220161288
vertex -1 1 0
endloop
endfacet
facet normal 0 1 0
outer loop
vertex 0.19509032201612833 1 0.9807852804032304
vertex -1 1 0
vertex -0.9807852804032304 1 0.19509032201612825
endloop
endfacet
facet normal 0 1 0
outer loop
vertex 0.19509032201612833 1 0.9807852804032304
vertex -0.9807852804032304 1 0.19509032201612825
vertex -0.9238795325112867 1 0.3826834323650898
endloop
endfacet
facet normal 0 1 0
outer loop
vertex 0.19509032201612833 1 0.9807852804032304
vertex -0.9238795325112867 1 0.3826834323650898
vertex -0.8314696123025453 1 0.5555702330196022
endloop
endfacet
facet normal 0 1 0
outer loop
vertex 0.19509032201612833 1 0.9807852804032304
vertex -0.8314696123025453 1 0.5555702330196022
vertex -0.7071067811865475 1 0.7071067811865475
endloop
endfacet
facet normal 0 1 0
outer loop
vertex 0.19509032201612833 1 0.9807852804032304
vertex -0.7071067811865475 1 0.7071067811865475
vertex -0.555570233019602 1 0.8314696123025452
endloop
endfacet
facet normal 0 1 0
outer loop
vertex 0.19509032201612833 1 0.9807852804032304
vertex -0.555570233019602 1 0.8314696123025452
vertex -0.3826834323650897 1 0.9238795325112867
endloop
endfacet
facet normal 0 1 0
outer loop
vertex 0.19509032201612833 1 0.9807852804032304
vertex -0.3826834323650897 1 0.9238795325112867
vertex -0.19509032201612797 1 0.9807852804032304
endloop
endfacet
facet normal 0 1 0
outer loop
vertex 0.19509032201612833 1 0.9807852804032304
vertex -0.19509032201612797 1 0.9807852804032304
vertex 6.123233995736766e-17 1 1
endloop
endfacet
facet normal 0.9569403357322088 0 0.29028467725446233
outer loop
vertex 0.9238795325112867 -1 0.3826834323650898
vertex 0.9807852804032304 -1 0.19509032201612825
vertex 0.9807852804032304 1 0.19509032201612825
endloop
endfacet
facet normal 0.9569403357322088 0 0.29028467725446233
outer loop
vertex 0.9238795325112867 -1 0.3826834323650898
vertex 0.9807852804032304 1 0.19509032201612825
vertex 0.9238795325112867 1 0.3826834323650898
endloop
endfacet
facet normal 0.8819212643483549 0 0.4713967368259977
outer loop
vertex 0.8314696123025452 -1 0.5555702330196022
vertex 0.9238795325112867 -1 0.3826834323650898
vertex 0.9238795325112867 1 0.3826834323650898
endloop
endfacet
facet normal 0.8819212643483549 0 0.4713967368259977
outer loop
vertex 0.8314696123025452 -1 0.5555702330196022
vertex 0.9238795325112867 1 0.3826834323650898
vertex 0.8314696123025452 1 0.5555702330196022
endloop
endfacet
facet normal 0.7730104533627371 0 0.6343932841636454
outer loop
vertex 0.7071067811865476 -1 0.7071067811865475
vertex 0.8314696123025452 -1 0.5555702330196022
vertex 0.8314696123025452 1 0.5555702330196022
endloop
endfacet
facet normal 0.7730104533627371 0 0.6343932841636454
outer loop
vertex 0.7071067811865476 -1 0.7071067811865475
vertex 0.8314696123025452 1 0.5555702330196022
vertex 0.7071067811865476 1 0.7071067811865475
endloop
endfacet
facet normal 0.6343932841636457 0 0.7730104533627368
outer loop
vertex 0.5555702330196023 -1 0.8314696123025452
vertex 0.7071067811865476 -1 0.7071067811865475
vertex 0.7071067811865476 1 0.7071067811865475
endloop
endfacet
facet normal 0.6343932841636457 0 0.7730104533627368
outer loop
vertex 0.5555702330196023 -1 0.8314696123025452
vertex 0.7071067811865476 1 0.7071067811865475
vertex 0.5555702330196023 1 0.8314696123025452
endloop
endfacet
facet normal 0.47139673682599764 0 0.8819212643483552
outer loop
vertex 0.38268343236508984 -1 0.9238795325112867
vertex 0.5555702330196023 -1 0.8314696123025452
vertex 0.5555702330196023 1 0.8314696123025452
endloop
endfacet
facet normal 0.47139673682599764 0 0.8819212643483552
outer loop
vertex 0.38268343236508984 -1 0.9238795325112867
vertex 0.5555702330196023 1 0.8314696123025452
vertex 0.38268343236508984 1 0.9238795325112867
endloop
endfacet
facet normal 0.29028467725446233 0 0.9569403357322088
outer loop
vertex 0.19509032201612833 -1 0.9807852804032304
vertex 0.38268343236508984 -1 0.9238795325112867
vertex 0.38268343236508984 1 0.9238795325112867
endloop
endfacet
facet normal 0.29028467725446233 0 0.9569403357322088
outer loop
vertex 0.19509032201612833 -1 0.9807852804032304
vertex 0.38268343236508984 1 0.9238795325112867
vertex 0.19509032201612833 1 0.9807852804032304
endloop
endfacet
facet normal 0.0980171403295607 0 0.9951847266721969
outer loop
vertex 5.551115123125783e-17 -1 1
vertex 0.19509032201612833 -1 0.9807852804032304
vertex 0.19509032201612833 1 0.9807852804032304
endloop
endfacet
facet normal 0.0980171403295607 0 0.9951847266721969
outer loop
vertex 5.551115123125783e-17 -1 1
vertex 0.19509032201612833 1 0.9807852804032304
vertex 6.123233995736766e-17 1 1
endloop
endfacet
facet normal -0.09801714032956026 0 0.9951847266721969
outer loop
vertex -0.19509032201612797 -1 0.9807852804032304
vertex 5.551115123125783e-17 -1 1
vertex 6.123233995736766e-17 1 1
endloop
endfacet
facet normal -0.09801714032956026 0 0.9951847266721969
outer loop
vertex -0.19509032201612797 -1 0.9807852804032304
vertex 6.123233995736766e-17 1 1
vertex -0.19509032201612797 1 0.9807852804032304
endloop
endfacet
facet normal -0.2902846772544625 0 0.9569403357322088
outer loop
vertex -0.3826834323650897 -1 0.9238795325112867
vertex -0.19509032201612797 -1 0.9807852804032304
vertex -0.19509032201612797 1 0.9807852804032304
endloop
endfacet
facet normal -0.2902846772544625 0 0.9569403357322088
outer loop
vertex -0.3826834323650897 -1 0.9238795325112867
vertex -0.19509032201612797 1 0.9807852804032304
vertex -0.3826834323650897 1 0.9238795325112867
endloop
endfacet
facet normal -0.4713967368259976 0 0.881921264348355
outer loop
vertex -0.555570233019602 -1 0.8314696123025452
vertex -0.3826834323650897 -1 0.9238795325112867
vertex -0.3826834323650897 1 0.9238795325112867
endloop
endfacet
facet normal -0.4713967368259976 0 0.881921264348355
outer loop
vertex -0.555570233019602 -1 0.8314696123025452
vertex -0.3826834323650897 1 0.9238795325112867
vertex -0.555570233019602 1 0.8314696123025452
endloop
endfacet
facet normal -0.6343932841636452 0 0.7730104533627372
outer loop
vertex -0.7071067811865475 -1 0.7071067811865475
vertex -0.555570233019602 -1 0.8314696123025452
vertex -0.555570233019602 1 0.8314696123025452
endloop
endfacet
facet normal -0.6343932841636452 0 0.7730104533627372
outer loop
vertex -0.7071067811865475 -1 0.7071067811865475
vertex -0.555570233019602 1 0.8314696123025452
vertex -0.7071067811865475 1 0.7071067811865475
endloop
endfacet
facet normal -0.7730104533627368 0 0.6343932841636458
outer loop
vertex -0.8314696123025453 -1 0.5555702330196022
vertex -0.7071067811865475 -1 0.7071067811865475
vertex -0.7071067811865475 1 0.7071067811865475
endloop
endfacet
facet normal -0.7730104533627368 0 0.6343932841636458
outer loop
vertex -0.8314696123025453 -1 0.5555702330196022
vertex -0.7071067811865475 1 0.7071067811865475
vertex -0.8314696123025453 1 0.5555702330196022
endloop
endfacet
facet normal -0.8819212643483552 0 0.47139673682599753
outer loop
vertex -0.9238795325112867 -1 0.3826834323650898
vertex -0.8314696123025453 -1 0.5555702330196022
vertex -0.8314696123025453 1 0.5555702330196022
endloop
endfacet
facet normal -0.8819212643483552 0 0.47139673682599753
outer loop
vertex -0.9238795325112867 -1 0.3826834323650898
vertex -0.8314696123025453 1 0.5555702330196022
vertex -0.9238795325112867 1 0.3826834323650898
endloop
endfacet
facet normal -0.9569403357322088 0 0.29028467725446266
outer loop
vertex -0.9807852804032304 -1 0.19509032201612825
vertex -0.9238795325112867 -1 0.3826834323650898
vertex -0.9238795325112867 1 0.3826834323650898
endloop
endfacet
facet normal -0.9569403357322088 0 0.29028467725446266
outer loop
vertex -0.9807852804032304 -1 0.19509032201612825
vertex -0.9238795325112867 1 0.3826834323650898
vertex -0.9807852804032304 1 0.19509032201612825
endloop
endfacet
facet normal -0.9951847266721969 0 0.09801714032956059
outer loop
vertex -1 -1 0
vertex -0.9807852804032304 -1 0.19509032201612825
vertex -0.9807852804032304 1 0.19509032201612825
endloop
endfacet
facet normal -0.9951847266721969 0 0.09801714032956059
outer loop
vertex -1 -1 0
vertex -0.9807852804032304 1 0.19509032201612825
vertex -1 1 0
endloop
endfacet
facet normal -0.9951847266721968 0 -0.09801714032956092
outer loop
vertex -0.9807852804032303 -1 -0.1950903220161288
vertex -1 -1 0
vertex -1 1 0
endloop
endfacet
facet normal -0.9951847266721968 0 -0.09801714032956092
outer loop
vertex -0.9807852804032303 -1 -0.1950903220161288
vertex -1 1 0
vertex -0.9807852804032303 1 -0.1950903220161288
endloop
endfacet
facet normal -0.9569403357322089 0 -0.29028467725446233
outer loop
vertex -0.923879532511287 -1 -0.3826834323650892
vertex -0.9807852804032303 -1 -0.1950903220161288
vertex -0.9807852804032303 1 -0.1950903220161288
endloop
endfacet
facet normal -0.9569403357322089 0 -0.29028467725446233
outer loop
vertex -0.923879532511287 -1 -0.3826834323650892
vertex -0.9807852804032303 1 -0.1950903220161288
vertex -0.923879532511287 1 -0.3826834323650892
endloop
endfacet
facet normal -0.8819212643483553 0 -0.47139673682599703
outer loop
vertex -0.8314696123025457 -1 -0.5555702330196015
vertex -0.923879532511287 -1 -0.3826834323650892
vertex -0.923879532511287 1 -0.3826834323650892
endloop
endfacet
facet normal -0.8819212643483553 0 -0.47139673682599703
outer loop
vertex -0.8314696123025457 -1 -0.5555702330196015
vertex -0.923879532511287 1 -0.3826834323650892
vertex -0.8314696123025457 1 -0.5555702330196015
endloop
endfacet
facet normal -0.7730104533627375 0 -0.6343932841636447
outer loop
vertex -0.7071067811865477 -1 -0.7071067811865475
vertex -0.8314696123025457 -1 -0.5555702330196015
vertex -0.8314696123025457 1 -0.5555702330196015
endloop
endfacet
facet normal -0.7730104533627375 0 -0.6343932841636447
outer loop
vertex -0.7071067811865477 -1 -0.7071067811865475
vertex -0.8314696123025457 1 -0.5555702330196015
vertex -0.7071067811865477 1 -0.7071067811865475
endloop
endfacet
facet normal -0.6343932841636452 0 -0.7730104533627372
outer loop
vertex -0.5555702330196022 -1 -0.8314696123025452
vertex -0.7071067811865477 -1 -0.7071067811865475
vertex -0.7071067811865477 1 -0.7071067811865475
endloop
endfacet
facet normal -0.6343932841636452 0 -0.7730104533627372
outer loop
vertex -0.5555702330196022 -1 -0.8314696123025452
vertex -0.7071067811865477 1 -0.7071067811865475
vertex -0.5555702330196022 1 -0.8314696123025452
endloop
endfacet
facet normal -0.471396736825998 0 -0.8819212643483547
outer loop
vertex -0.38268343236509034 -1 -0.9238795325112865
vertex -0.5555702330196022 -1 -0.8314696123025452
vertex -0.5555702330196022 1 -0.8314696123025452
endloop
endfacet
facet normal -0.471396736825998 0 -0.8819212643483547
outer loop
vertex -0.38268343236509034 -1 -0.9238795325112865
vertex -0.5555702330196022 1 -0.8314696123025452
vertex -0.38268343236509034 1 -0.9238795325112865
endloop
endfacet
facet normal -0.29028467725446266 0 -0.9569403357322087
outer loop
vertex -0.19509032201612866 -1 -0.9807852804032303
vertex -0.38268343236509034 -1 -0.9238795325112865
vertex -0.38268343236509034 1 -0.9238795325112865
endloop
endfacet
facet normal -0.29028467725446266 0 -0.9569403357322087
outer loop
vertex -0.19509032201612866 -1 -0.9807852804032303
vertex -0.38268343236509034 1 -0.9238795325112865
vertex -0.19509032201612866 1 -0.9807852804032303
endloop
endfacet
facet normal -0.09801714032956114 0 -0.9951847266721968
outer loop
vertex -1.8369701987210297e-16 -1 -1
vertex -0.19509032201612866 -1 -0.9807852804032303
vertex -0.19509032201612866 1 -0.9807852804032303
endloop
endfacet
facet normal -0.09801714032956114 0 -0.9951847266721968
outer loop
vertex -1.8369701987210297e-16 -1 -1
vertex -0.19509032201612866 1 -0.9807852804032303
vertex -1.942890293094024e-16 1 -1
endloop
endfacet
facet normal 0.09801714032956059 0 -0.9951847266721969
outer loop
vertex 0.1950903220161283 -1 -0.9807852804032303
vertex -1.8369701987210297e-16 -1 -1
vertex -1.942890293094024e-16 1 -1
endloop
endfacet
facet normal 0.09801714032956059 0 -0.9951847266721969
outer loop
vertex 0.1950903220161283 -1 -0.9807852804032303
vertex -1.942890293094024e-16 1 -1
vertex 0.1950903220161283 1 -0.9807852804032303
endloop
endfacet
facet normal 0.2902846772544626 0 -0.9569403357322087
outer loop
vertex 0.38268343236509 -1 -0.9238795325112865
vertex 0.1950903220161283 -1 -0.9807852804032303
vertex 0.1950903220161283 1 -0.9807852804032303
endloop
endfacet
facet normal 0.2902846772544626 0 -0.9569403357322087
outer loop
vertex 0.38268343236509 -1 -0.9238795325112865
vertex 0.1950903220161283 1 -0.9807852804032303
vertex 0.38268343236509 1 -0.9238795325112865
endloop
endfacet
facet normal 0.47139673682599753 0 -0.881921264348355
outer loop
vertex 0.5555702330196018 -1 -0.8314696123025452
vertex 0.38268343236509 -1 -0.9238795325112865
vertex 0.38268343236509 1 -0.9238795325112865
endloop
endfacet
facet normal 0.47139673682599753 0 -0.881921264348355
outer loop
vertex 0.5555702330196018 -1 -0.8314696123025452
vertex 0.38268343236509 1 -0.9238795325112865
vertex 0.5555702330196018 1 -0.8314696123025452
endloop
endfacet
facet normal 0.6343932841636452 0 -0.7730104533627372
outer loop
vertex 0.7071067811865474 -1 -0.7071067811865475
vertex 0.5555702330196018 -1 -0.8314696123025452
vertex 0.5555702330196018 1 -0.8314696123025452
endloop
endfacet
facet normal 0.6343932841636452 0 -0.7730104533627372
outer loop
vertex 0.7071067811865474 -1 -0.7071067811865475
vertex 0.5555702330196018 1 -0.8314696123025452
vertex 0.7071067811865474 1 -0.7071067811865475
endloop
endfacet
facet normal 0.7730104533627369 0 -0.6343932841636455
outer loop
vertex 0.8314696123025452 -1 -0.5555702330196015
vertex 0.7071067811865474 -1 -0.7071067811865475
vertex 0.7071067811865474 1 -0.7071067811865475
endloop
endfacet
facet normal 0.7730104533627369 0 -0.6343932841636455
outer loop
vertex 0.8314696123025452 -1 -0.5555702330196015
vertex 0.7071067811865474 1 -0.7071067811865475
vertex 0.8314696123025452 1 -0.5555702330196015
endloop
endfacet
facet normal 0.8819212643483547 0 -0.4713967368259981
outer loop
vertex 0.9238795325112865 -1 -0.3826834323650892
vertex 0.8314696123025452 -1 -0.5555702330196015
vertex 0.8314696123025452 1 -0.5555702330196015
endloop
endfacet
facet normal 0.8819212643483547 0 -0.4713967368259981
outer loop
vertex 0.9238795325112865 -1 -0.3826834323650892
vertex 0.8314696123025452 1 -0.5555702330196015
vertex 0.9238795325112865 1 -0.3826834323650892
endloop
endfacet
facet normal 0.9569403357322087 0 -0.29028467725446266
outer loop
vertex 0.9807852804032303 -1 -0.1950903220161288
vertex 0.9238795325112865 -1 -0.3826834323650892
vertex 0.9238795325112865 1 -0.3826834323650892
endloop
endfacet
facet normal 0.9569403357322087 0 -0.29028467725446266
outer loop
vertex 0.9807852804032303 -1 -0.1950903220161288
vertex 0.9238795325112865 1 -0.3826834323650892
vertex 0.9807852804032303 1 -0.1950903220161288
endloop
endfacet
facet normal 0.9951847266721968 0 -0.09801714032956114
outer loop
vertex 1 -1 0
vertex 0.9807852804032303 -1 -0.1950903220161288
vertex 0.9807852804032303 1 -0.1950903220161288
endloop
endfacet
facet normal 0.9951847266721968 0 -0.09801714032956114
outer loop
vertex 1 -1 0
vertex 0.9807852804032303 1 -0.1950903220161288
vertex 1 1 0
endloop
endfacet
endsolid csg.js
