solid csg.js
facet normal 0.9946227352441045 -0.09796178900512505 -0.03360211943392231
outer loop
vertex 39.26984065532275 -7.4134322366128735 74
vertex 39.23141121612922 -7.803612880645131 74.00000000000001
vertex 36.77944801512115 -7.31588707560481 0
endloop
endfacet
facet normal 0.9946227352441045 -0.09796178900512505 -0.03360211943392231
outer loop
vertex 39.26984065532275 -7.4134322366128735 74
vertex 36.77944801512115 -7.31588707560481 0
vertex 36.81787745431468 -6.925706431572553 0
endloop
endfacet
facet normal 0.9946227352441045 -0.09796178900512505 -0.03360211943392231
outer loop
vertex 39.26984065532275 -7.4134322366128735 74
vertex 36.81787745431468 -6.925706431572553 0
vertex 37.50000000000001 -4.440892098500626e-16 0
endloop
endfacet
facet normal 0.9946227352441045 -0.09796178900512505 -0.03360211943392231
outer loop
vertex 39.26984065532275 -7.4134322366128735 74
vertex 37.50000000000001 -4.440892098500626e-16 0
vertex 40 0 74.00000000000001
endloop
endfacet
facet normal 0.9563999413195315 -0.290120750401527 -0.03360211943392241
outer loop
vertex 37.18735280061032 -14.541970429873412 74
vertex 36.95518130045148 -15.307337294603593 74.00000000000001
vertex 34.64548246917326 -14.350628713690867 2.220446049250313e-16
endloop
endfacet
facet normal 0.9563999413195315 -0.290120750401527 -0.03360211943392241
outer loop
vertex 37.18735280061032 -14.541970429873412 74
vertex 34.64548246917326 -14.350628713690867 2.220446049250313e-16
vertex 34.8776539693321 -13.585261848960688 0
endloop
endfacet
facet normal 0.9563999413195315 -0.290120750401527 -0.03360211943392241
outer loop
vertex 37.18735280061032 -14.541970429873412 74
vertex 34.8776539693321 -13.585261848960688 0
vertex 36.77944801512115 -7.31588707560481 0
endloop
endfacet
facet normal 0.9563999413195315 -0.290120750401527 -0.03360211943392241
outer loop
vertex 37.18735280061032 -14.541970429873412 74
vertex 36.77944801512115 -7.31588707560481 0
vertex 39.23141121612922 -7.803612880645131 74.00000000000001
endloop
endfacet
facet normal 0.8814232340053051 -0.4711305340616096 -0.03360211943392241
outer loop
vertex 33.85270144480532 -21.111668854744885 74
vertex 33.258784492101796 -22.222809320784087 74
vertex 31.18011046134544 -20.833883738235077 2.220446049250313e-16
endloop
endfacet
facet normal 0.8814232340053051 -0.4711305340616096 -0.03360211943392241
outer loop
vertex 33.85270144480532 -21.111668854744885 74
vertex 31.18011046134544 -20.833883738235077 2.220446049250313e-16
vertex 31.774027414048952 -19.722743272195878 0
endloop
endfacet
facet normal 0.8814232340053051 -0.4711305340616096 -0.03360211943392241
outer loop
vertex 33.85270144480532 -21.111668854744885 74
vertex 31.774027414048952 -19.722743272195878 0
vertex 34.64548246917326 -14.350628713690867 2.220446049250313e-16
endloop
endfacet
facet normal 0.8814232340053051 -0.4711305340616096 -0.03360211943392241
outer loop
vertex 33.85270144480532 -21.111668854744885 74
vertex 34.64548246917326 -14.350628713690867 2.220446049250313e-16
vertex 36.95518130045148 -15.307337294603593 74.00000000000001
endloop
endfacet
facet normal 0.7725739261161119 -0.6340350355107236 -0.03360211943392246
outer loop
vertex 29.444886323803747 -26.870057685088803 74
vertex 28.2842712474619 -28.2842712474619 74
vertex 26.516504294495526 -26.51650429449553 2.220446049250313e-16
endloop
endfacet
facet normal 0.7725739261161119 -0.6340350355107236 -0.03360211943392246
outer loop
vertex 29.444886323803747 -26.870057685088803 74
vertex 26.516504294495526 -26.51650429449553 2.220446049250313e-16
vertex 27.677119370837378 -25.102290732122434 0
endloop
endfacet
facet normal 0.7725739261161119 -0.6340350355107236 -0.03360211943392246
outer loop
vertex 29.444886323803747 -26.870057685088803 74
vertex 27.677119370837378 -25.102290732122434 0
vertex 31.18011046134544 -20.833883738235077 2.220446049250313e-16
endloop
endfacet
facet normal 0.7725739261161119 -0.6340350355107236 -0.03360211943392246
outer loop
vertex 29.444886323803747 -26.870057685088803 74
vertex 31.18011046134544 -20.833883738235077 2.220446049250313e-16
vertex 33.258784492101796 -22.222809320784087 74
endloop
endfacet
facet normal 0.6340350355107259 -0.7725739261161102 -0.03360211943392238
outer loop
vertex 24.24910662880392 -31.595845267496728 74
vertex 22.2228093207841 -33.25878449210182 74.00000000000003
vertex 20.833883738235095 -31.180110461345457 2.220446049250313e-16
endloop
endfacet
facet normal 0.6340350355107259 -0.7725739261161102 -0.03360211943392238
outer loop
vertex 24.24910662880392 -31.595845267496728 74
vertex 20.833883738235095 -31.180110461345457 2.220446049250313e-16
vertex 22.860181046254922 -29.517171236740356 0
endloop
endfacet
facet normal 0.6340350355107259 -0.7725739261161102 -0.03360211943392238
outer loop
vertex 24.24910662880392 -31.595845267496728 74
vertex 22.860181046254922 -29.517171236740356 0
vertex 26.516504294495526 -26.51650429449553 2.220446049250313e-16
endloop
endfacet
facet normal 0.6340350355107259 -0.7725739261161102 -0.03360211943392238
outer loop
vertex 24.24910662880392 -31.595845267496728 74
vertex 26.516504294495526 -26.51650429449553 2.220446049250313e-16
vertex 28.2842712474619 -28.2842712474619 74
endloop
endfacet
facet normal 0.4711305340615975 -0.8814232340053115 -0.03360211943392232
outer loop
vertex 18.764251361951846 -35.107422235428885 74
vertex 15.307337294603592 -36.955181300451464 74.00000000000001
vertex 14.350628713690872 -34.64548246917325 0
endloop
endfacet
facet normal 0.4711305340615975 -0.8814232340053115 -0.03360211943392232
outer loop
vertex 18.764251361951846 -35.107422235428885 74
vertex 14.350628713690872 -34.64548246917325 0
vertex 17.807542781039096 -32.79772340415068 0
endloop
endfacet
facet normal 0.4711305340615975 -0.8814232340053115 -0.03360211943392232
outer loop
vertex 18.764251361951846 -35.107422235428885 74
vertex 17.807542781039096 -32.79772340415068 0
vertex 20.833883738235095 -31.180110461345457 2.220446049250313e-16
endloop
endfacet
facet normal 0.4711305340615975 -0.8814232340053115 -0.03360211943392232
outer loop
vertex 18.764251361951846 -35.107422235428885 74
vertex 20.833883738235095 -31.180110461345457 2.220446049250313e-16
vertex 22.2228093207841 -33.25878449210182 74.00000000000003
endloop
endfacet
facet normal -0.2599544302466874 0.8569549109796032 0.4450303076679838
outer loop
vertex 14.270044415283394 -37.26984065532277 74
vertex 11.863031633754655 -37.99999999999999 74
vertex 7.803612880645132 -39.231411216129224 74.00000000000001
endloop
endfacet
facet normal -0.2599544302466874 0.8569549109796032 0.4450303076679838
outer loop
vertex 14.270044415283394 -37.26984065532277 74
vertex 7.803612880645132 -39.231411216129224 74.00000000000001
vertex 7.315887075604811 -36.77944801512115 2.220446049250313e-16
endloop
endfacet
facet normal -0.2599544302466874 0.8569549109796032 0.4450303076679838
outer loop
vertex 14.270044415283394 -37.26984065532277 74
vertex 7.315887075604811 -36.77944801512115 2.220446049250313e-16
vertex 11.533661932762254 -35.5 0
endloop
endfacet
facet normal -0.2599544302466874 0.8569549109796032 0.4450303076679838
outer loop
vertex 14.270044415283394 -37.26984065532277 74
vertex 11.533661932762254 -35.5 0
vertex 13.78231861024309 -34.81787745431468 0
endloop
endfacet
facet normal -0.2599544302466874 0.8569549109796032 0.4450303076679838
outer loop
vertex 14.270044415283394 -37.26984065532277 74
vertex 13.78231861024309 -34.81787745431468 0
vertex 14.350628713690872 -34.64548246917325 0
endloop
endfacet
facet normal -0.2599544302466874 0.8569549109796032 0.4450303076679838
outer loop
vertex 14.270044415283394 -37.26984065532277 74
vertex 14.350628713690872 -34.64548246917325 0
vertex 15.307337294603592 -36.955181300451464 74.00000000000001
endloop
endfacet
facet normal 0.09796178900513322 -0.9946227352441036 -0.033602119433922426
outer loop
vertex 2.220446049250313e-15 -40 74.00000000000001
vertex 2.6645352591003757e-15 -37.50000000000001 2.220446049250313e-16
vertex 7.315887075604811 -36.77944801512115 2.220446049250313e-16
endloop
endfacet
facet normal 0.09796178900513322 -0.9946227352441036 -0.033602119433922426
outer loop
vertex 2.220446049250313e-15 -40 74.00000000000001
vertex 7.315887075604811 -36.77944801512115 2.220446049250313e-16
vertex 7.803612880645132 -39.231411216129224 74.00000000000001
endloop
endfacet
facet normal -0.09796178900513237 -0.9946227352441036 -0.033602119433922426
outer loop
vertex -7.80361288064512 -39.23141121612922 74
vertex -7.315887075604799 -36.77944801512115 0
vertex 2.6645352591003757e-15 -37.50000000000001 2.220446049250313e-16
endloop
endfacet
facet normal -0.09796178900513237 -0.9946227352441036 -0.033602119433922426
outer loop
vertex -7.80361288064512 -39.23141121612922 74
vertex 2.6645352591003757e-15 -37.50000000000001 2.220446049250313e-16
vertex 2.220446049250313e-15 -40 74.00000000000001
endloop
endfacet
facet normal -0.2612348519974051 -0.8611758958128309 -0.4360417738850969
outer loop
vertex -11.863031633754657 -37.99999999999999 74
vertex -14.270044415283385 -37.26984065532277 74
vertex -15.307337294603588 -36.955181300451464 73.99999999999999
endloop
endfacet
facet normal -0.2612348519974051 -0.8611758958128309 -0.4360417738850969
outer loop
vertex -11.863031633754657 -37.99999999999999 74
vertex -15.307337294603588 -36.955181300451464 73.99999999999999
vertex -14.350628713690863 -34.645482469173245 2.220446049250313e-16
endloop
endfacet
facet normal -0.2612348519974051 -0.8611758958128309 -0.4360417738850969
outer loop
vertex -11.863031633754657 -37.99999999999999 74
vertex -14.350628713690863 -34.645482469173245 2.220446049250313e-16
vertex -13.782318610243083 -34.81787745431468 0
endloop
endfacet
facet normal -0.2612348519974051 -0.8611758958128309 -0.4360417738850969
outer loop
vertex -11.863031633754657 -37.99999999999999 74
vertex -13.782318610243083 -34.81787745431468 0
vertex -11.533661932762245 -35.5 0
endloop
endfacet
facet normal -0.2612348519974051 -0.8611758958128309 -0.4360417738850969
outer loop
vertex -11.863031633754657 -37.99999999999999 74
vertex -11.533661932762245 -35.5 0
vertex -7.315887075604799 -36.77944801512115 0
endloop
endfacet
facet normal -0.2612348519974051 -0.8611758958128309 -0.4360417738850969
outer loop
vertex -11.863031633754657 -37.99999999999999 74
vertex -7.315887075604799 -36.77944801512115 0
vertex -7.80361288064512 -39.23141121612922 74
endloop
endfacet
facet normal -0.47113053406159794 -0.8814232340053114 -0.033602119433922405
outer loop
vertex -18.764251361951843 -35.107422235428885 74
vertex -22.222809320784087 -33.25878449210182 74.00000000000003
vertex -20.833883738235077 -31.180110461345457 4.440892098500626e-16
endloop
endfacet
facet normal -0.47113053406159794 -0.8814232340053114 -0.033602119433922405
outer loop
vertex -18.764251361951843 -35.107422235428885 74
vertex -20.833883738235077 -31.180110461345457 4.440892098500626e-16
vertex -17.80754278103909 -32.79772340415068 0
endloop
endfacet
facet normal -0.47113053406159794 -0.8814232340053114 -0.033602119433922405
outer loop
vertex -18.764251361951843 -35.107422235428885 74
vertex -17.80754278103909 -32.79772340415068 0
vertex -14.350628713690863 -34.645482469173245 2.220446049250313e-16
endloop
endfacet
facet normal -0.47113053406159794 -0.8814232340053114 -0.033602119433922405
outer loop
vertex -18.764251361951843 -35.107422235428885 74
vertex -14.350628713690863 -34.645482469173245 2.220446049250313e-16
vertex -15.307337294603588 -36.955181300451464 73.99999999999999
endloop
endfacet
facet normal -0.6340350355107232 -0.7725739261161124 -0.03360211943392236
outer loop
vertex -24.24910662880391 -31.595845267496728 74
vertex -28.284271247461895 -28.284271247461895 74
vertex -26.516504294495533 -26.516504294495526 0
endloop
endfacet
facet normal -0.6340350355107232 -0.7725739261161124 -0.03360211943392236
outer loop
vertex -24.24910662880391 -31.595845267496728 74
vertex -26.516504294495533 -26.516504294495526 0
vertex -22.860181046254915 -29.517171236740356 0
endloop
endfacet
facet normal -0.6340350355107232 -0.7725739261161124 -0.03360211943392236
outer loop
vertex -24.24910662880391 -31.595845267496728 74
vertex -22.860181046254915 -29.517171236740356 0
vertex -20.833883738235077 -31.180110461345457 4.440892098500626e-16
endloop
endfacet
facet normal -0.6340350355107232 -0.7725739261161124 -0.03360211943392236
outer loop
vertex -24.24910662880391 -31.595845267496728 74
vertex -20.833883738235077 -31.180110461345457 4.440892098500626e-16
vertex -22.222809320784087 -33.25878449210182 74.00000000000003
endloop
endfacet
facet normal -0.772573926116114 -0.6340350355107214 -0.033602119433922405
outer loop
vertex -29.444886323803747 -26.870057685088803 74
vertex -33.2587844921018 -22.222809320784084 74
vertex -31.180110461345443 -20.833883738235077 0
endloop
endfacet
facet normal -0.772573926116114 -0.6340350355107214 -0.033602119433922405
outer loop
vertex -29.444886323803747 -26.870057685088803 74
vertex -31.180110461345443 -20.833883738235077 0
vertex -27.677119370837378 -25.102290732122434 0
endloop
endfacet
facet normal -0.772573926116114 -0.6340350355107214 -0.033602119433922405
outer loop
vertex -29.444886323803747 -26.870057685088803 74
vertex -27.677119370837378 -25.102290732122434 0
vertex -26.516504294495533 -26.516504294495526 0
endloop
endfacet
facet normal -0.772573926116114 -0.6340350355107214 -0.033602119433922405
outer loop
vertex -29.444886323803747 -26.870057685088803 74
vertex -26.516504294495533 -26.516504294495526 0
vertex -28.284271247461895 -28.284271247461895 74
endloop
endfacet
facet normal -0.8814232340053112 -0.4711305340615982 -0.033602119433922335
outer loop
vertex -33.85270144480532 -21.111668854744885 74
vertex -36.955181300451464 -15.307337294603593 74
vertex -34.64548246917325 -14.350628713690872 0
endloop
endfacet
facet normal -0.8814232340053112 -0.4711305340615982 -0.033602119433922335
outer loop
vertex -33.85270144480532 -21.111668854744885 74
vertex -34.64548246917325 -14.350628713690872 0
vertex -31.774027414048955 -19.722743272195878 0
endloop
endfacet
facet normal -0.8814232340053112 -0.4711305340615982 -0.033602119433922335
outer loop
vertex -33.85270144480532 -21.111668854744885 74
vertex -31.774027414048955 -19.722743272195878 0
vertex -31.180110461345443 -20.833883738235077 0
endloop
endfacet
facet normal -0.8814232340053112 -0.4711305340615982 -0.033602119433922335
outer loop
vertex -33.85270144480532 -21.111668854744885 74
vertex -31.180110461345443 -20.833883738235077 0
vertex -33.2587844921018 -22.222809320784084 74
endloop
endfacet
facet normal -0.9563999413195284 -0.2901207504015374 -0.03360211943392243
outer loop
vertex -37.18735280061033 -14.541970429873412 74
vertex -39.23141121612923 -7.803612880645149 74
vertex -36.779448015121154 -7.3158870756048255 -4.440892098500626e-16
endloop
endfacet
facet normal -0.9563999413195284 -0.2901207504015374 -0.03360211943392243
outer loop
vertex -37.18735280061033 -14.541970429873412 74
vertex -36.779448015121154 -7.3158870756048255 -4.440892098500626e-16
vertex -34.8776539693321 -13.585261848960688 0
endloop
endfacet
facet normal -0.9563999413195284 -0.2901207504015374 -0.03360211943392243
outer loop
vertex -37.18735280061033 -14.541970429873412 74
vertex -34.8776539693321 -13.585261848960688 0
vertex -34.64548246917325 -14.350628713690872 0
endloop
endfacet
facet normal -0.9563999413195284 -0.2901207504015374 -0.03360211943392243
outer loop
vertex -37.18735280061033 -14.541970429873412 74
vertex -34.64548246917325 -14.350628713690872 0
vertex -36.955181300451464 -15.307337294603593 74
endloop
endfacet
facet normal -0.9946227352441036 -0.0979617890051327 -0.03360211943392242
outer loop
vertex -39.26984065532276 -7.4134322366128735 74
vertex -40 -4.884981308350689e-15 74
vertex -37.5 -4.440892098500626e-15 0
endloop
endfacet
facet normal -0.9946227352441036 -0.0979617890051327 -0.03360211943392242
outer loop
vertex -39.26984065532276 -7.4134322366128735 74
vertex -37.5 -4.440892098500626e-15 0
vertex -36.81787745431468 -6.925706431572553 0
endloop
endfacet
facet normal -0.9946227352441036 -0.0979617890051327 -0.03360211943392242
outer loop
vertex -39.26984065532276 -7.4134322366128735 74
vertex -36.81787745431468 -6.925706431572553 0
vertex -36.779448015121154 -7.3158870756048255 -4.440892098500626e-16
endloop
endfacet
facet normal -0.9946227352441036 -0.0979617890051327 -0.03360211943392242
outer loop
vertex -39.26984065532276 -7.4134322366128735 74
vertex -36.779448015121154 -7.3158870756048255 -4.440892098500626e-16
vertex -39.23141121612923 -7.803612880645149 74
endloop
endfacet
facet normal -0.9946227352441063 0.09796178900510688 -0.033602119433922335
outer loop
vertex -39.26984065532275 7.413432236612896 74
vertex -39.231411216129224 7.803612880645154 74.00000000000001
vertex -36.77944801512115 7.315887075604831 0
endloop
endfacet
facet normal -0.9946227352441063 0.09796178900510688 -0.033602119433922335
outer loop
vertex -39.26984065532275 7.413432236612896 74
vertex -36.77944801512115 7.315887075604831 0
vertex -36.81787745431468 6.925706431572571 0
endloop
endfacet
facet normal -0.9946227352441063 0.09796178900510688 -0.033602119433922335
outer loop
vertex -39.26984065532275 7.413432236612896 74
vertex -36.81787745431468 6.925706431572571 0
vertex -37.5 -4.440892098500626e-15 0
endloop
endfacet
facet normal -0.9946227352441063 0.09796178900510688 -0.033602119433922335
outer loop
vertex -39.26984065532275 7.413432236612896 74
vertex -37.5 -4.440892098500626e-15 0
vertex -40 -4.884981308350689e-15 74
endloop
endfacet
facet normal -0.956399941319526 0.29012075040154534 -0.033602119433922384
outer loop
vertex -37.18735280061033 14.541970429873393 74
vertex -36.95518130045147 15.307337294603563 73.99999999999997
vertex -34.64548246917326 14.350628713690842 -4.440892098500626e-16
endloop
endfacet
facet normal -0.956399941319526 0.29012075040154534 -0.033602119433922384
outer loop
vertex -37.18735280061033 14.541970429873393 74
vertex -34.64548246917326 14.350628713690842 -4.440892098500626e-16
vertex -34.87765396933211 13.585261848960672 0
endloop
endfacet
facet normal -0.956399941319526 0.29012075040154534 -0.033602119433922384
outer loop
vertex -37.18735280061033 14.541970429873393 74
vertex -34.87765396933211 13.585261848960672 0
vertex -36.77944801512115 7.315887075604831 0
endloop
endfacet
facet normal -0.956399941319526 0.29012075040154534 -0.033602119433922384
outer loop
vertex -37.18735280061033 14.541970429873393 74
vertex -36.77944801512115 7.315887075604831 0
vertex -39.231411216129224 7.803612880645154 74.00000000000001
endloop
endfacet
facet normal -0.8814232340053173 0.4711305340615869 -0.03360211943392236
outer loop
vertex -33.85270144480533 21.11166885474486 74
vertex -33.25878449210184 22.222809320784066 74.00000000000001
vertex -31.180110461345475 20.833883738235063 0
endloop
endfacet
facet normal -0.8814232340053173 0.4711305340615869 -0.03360211943392236
outer loop
vertex -33.85270144480533 21.11166885474486 74
vertex -31.180110461345475 20.833883738235063 0
vertex -31.774027414048973 19.72274327219585 0
endloop
endfacet
facet normal -0.8814232340053173 0.4711305340615869 -0.03360211943392236
outer loop
vertex -33.85270144480533 21.11166885474486 74
vertex -31.774027414048973 19.72274327219585 0
vertex -34.64548246917326 14.350628713690842 -4.440892098500626e-16
endloop
endfacet
facet normal -0.8814232340053173 0.4711305340615869 -0.03360211943392236
outer loop
vertex -33.85270144480533 21.11166885474486 74
vertex -34.64548246917326 14.350628713690842 -4.440892098500626e-16
vertex -36.95518130045147 15.307337294603563 73.99999999999997
endloop
endfacet
facet normal -0.7725739261161133 0.6340350355107222 -0.03360211943392235
outer loop
vertex -29.444886323803747 26.870057685088806 74
vertex -28.28427124746191 28.284271247461895 74
vertex -26.516504294495544 26.51650429449553 -4.440892098500626e-16
endloop
endfacet
facet normal -0.7725739261161133 0.6340350355107222 -0.03360211943392235
outer loop
vertex -29.444886323803747 26.870057685088806 74
vertex -26.516504294495544 26.51650429449553 -4.440892098500626e-16
vertex -27.677119370837374 25.102290732122437 0
endloop
endfacet
facet normal -0.7725739261161133 0.6340350355107222 -0.03360211943392235
outer loop
vertex -29.444886323803747 26.870057685088806 74
vertex -27.677119370837374 25.102290732122437 0
vertex -31.180110461345475 20.833883738235063 0
endloop
endfacet
facet normal -0.7725739261161133 0.6340350355107222 -0.03360211943392235
outer loop
vertex -29.444886323803747 26.870057685088806 74
vertex -31.180110461345475 20.833883738235063 0
vertex -33.25878449210184 22.222809320784066 74.00000000000001
endloop
endfacet
facet normal -0.634035035510722 0.7725739261161133 -0.03360211943392241
outer loop
vertex -24.249106628803922 31.595845267496724 74
vertex -22.222809320784087 33.25878449210181 74
vertex -20.833883738235084 31.180110461345446 -2.220446049250313e-16
endloop
endfacet
facet normal -0.634035035510722 0.7725739261161133 -0.03360211943392241
outer loop
vertex -24.249106628803922 31.595845267496724 74
vertex -20.833883738235084 31.180110461345446 -2.220446049250313e-16
vertex -22.86018104625491 29.517171236740364 0
endloop
endfacet
facet normal -0.634035035510722 0.7725739261161133 -0.03360211943392241
outer loop
vertex -24.249106628803922 31.595845267496724 74
vertex -22.86018104625491 29.517171236740364 0
vertex -26.516504294495544 26.51650429449553 -4.440892098500626e-16
endloop
endfacet
facet normal -0.634035035510722 0.7725739261161133 -0.03360211943392241
outer loop
vertex -24.249106628803922 31.595845267496724 74
vertex -26.516504294495544 26.51650429449553 -4.440892098500626e-16
vertex -28.28427124746191 28.284271247461895 74
endloop
endfacet
facet normal -0.4711305340616014 0.8814232340053095 -0.033602119433922356
outer loop
vertex -18.764251361951843 35.107422235428885 74
vertex -15.307337294603624 36.955181300451464 74
vertex -14.350628713690897 34.64548246917325 -4.440892098500626e-16
endloop
endfacet
facet normal -0.4711305340616014 0.8814232340053095 -0.033602119433922356
outer loop
vertex -18.764251361951843 35.107422235428885 74
vertex -14.350628713690897 34.64548246917325 -4.440892098500626e-16
vertex -17.80754278103911 32.79772340415067 0
endloop
endfacet
facet normal -0.4711305340616014 0.8814232340053095 -0.033602119433922356
outer loop
vertex -18.764251361951843 35.107422235428885 74
vertex -17.80754278103911 32.79772340415067 0
vertex -20.833883738235084 31.180110461345446 -2.220446049250313e-16
endloop
endfacet
facet normal -0.4711305340616014 0.8814232340053095 -0.033602119433922356
outer loop
vertex -18.764251361951843 35.107422235428885 74
vertex -20.833883738235084 31.180110461345446 -2.220446049250313e-16
vertex -22.222809320784087 33.25878449210181 74
endloop
endfacet
facet normal 0 0 1
outer loop
vertex -14.270044415283461 37.26984065532274 74
vertex -11.863031633754613 38 74
vertex -7.803612880645147 39.23141121612922 74
endloop
endfacet
facet normal 0 0 1
outer loop
vertex -14.270044415283461 37.26984065532274 74
vertex -7.803612880645147 39.23141121612922 74
vertex -7.315887075604824 36.77944801512115 -2.220446049250313e-16
endloop
endfacet
facet normal 0 0 1
outer loop
vertex -14.270044415283461 37.26984065532274 74
vertex -7.315887075604824 36.77944801512115 -2.220446049250313e-16
vertex -11.53366193276226 35.5 0
endloop
endfacet
facet normal 0 0 1
outer loop
vertex -14.270044415283461 37.26984065532274 74
vertex -11.53366193276226 35.5 0
vertex -13.782318610243088 34.81787745431468 0
endloop
endfacet
facet normal 0 0 1
outer loop
vertex -14.270044415283461 37.26984065532274 74
vertex -13.782318610243088 34.81787745431468 0
vertex -14.350628713690897 34.64548246917325 -4.440892098500626e-16
endloop
endfacet
facet normal 0 0 1
outer loop
vertex -14.270044415283461 37.26984065532274 74
vertex -14.350628713690897 34.64548246917325 -4.440892098500626e-16
vertex -15.307337294603624 36.955181300451464 74
endloop
endfacet
facet normal -0.09796178900513311 0.9946227352441036 -0.033602119433922335
outer loop
vertex -6.217248937900877e-15 39.99999999999999 74
vertex -6.217248937900877e-15 37.5 -2.220446049250313e-16
vertex -7.315887075604824 36.77944801512115 -2.220446049250313e-16
endloop
endfacet
facet normal -0.09796178900513311 0.9946227352441036 -0.033602119433922335
outer loop
vertex -6.217248937900877e-15 39.99999999999999 74
vertex -7.315887075604824 36.77944801512115 -2.220446049250313e-16
vertex -7.803612880645147 39.23141121612922 74
endloop
endfacet
facet normal 0.09796178900513311 0.9946227352441036 -0.033602119433922426
outer loop
vertex 7.803612880645133 39.23141121612922 74
vertex 7.315887075604811 36.77944801512115 -2.220446049250313e-16
vertex -6.217248937900877e-15 37.5 -2.220446049250313e-16
endloop
endfacet
facet normal 0.09796178900513311 0.9946227352441036 -0.033602119433922426
outer loop
vertex 7.803612880645133 39.23141121612922 74
vertex -6.217248937900877e-15 37.5 -2.220446049250313e-16
vertex -6.217248937900877e-15 39.99999999999999 74
endloop
endfacet
facet normal 0 0 1
outer loop
vertex 11.863031633754604 38 74
vertex 14.270044415283445 37.26984065532274 74
vertex 15.307337294603599 36.955181300451464 74
endloop
endfacet
facet normal 0 0 1
outer loop
vertex 11.863031633754604 38 74
vertex 15.307337294603599 36.955181300451464 74
vertex 14.350628713690876 34.645482469173245 0
endloop
endfacet
facet normal 0 0 1
outer loop
vertex 11.863031633754604 38 74
vertex 14.350628713690876 34.645482469173245 0
vertex 13.782318610243072 34.81787745431468 0
endloop
endfacet
facet normal 0 0 1
outer loop
vertex 11.863031633754604 38 74
vertex 13.782318610243072 34.81787745431468 0
vertex 11.533661932762245 35.5 0
endloop
endfacet
facet normal 0 0 1
outer loop
vertex 11.863031633754604 38 74
vertex 11.533661932762245 35.5 0
vertex 7.315887075604811 36.77944801512115 -2.220446049250313e-16
endloop
endfacet
facet normal 0 0 1
outer loop
vertex 11.863031633754604 38 74
vertex 7.315887075604811 36.77944801512115 -2.220446049250313e-16
vertex 7.803612880645133 39.23141121612922 74
endloop
endfacet
facet normal 0.4711305340615984 0.881423234005311 -0.03360211943392233
outer loop
vertex 18.76425136195184 35.107422235428885 74
vertex 22.222809320784076 33.25878449210182 74
vertex 20.833883738235073 31.18011046134546 -4.440892098500626e-16
endloop
endfacet
facet normal 0.4711305340615984 0.881423234005311 -0.03360211943392233
outer loop
vertex 18.76425136195184 35.107422235428885 74
vertex 20.833883738235073 31.18011046134546 -4.440892098500626e-16
vertex 17.807542781039096 32.79772340415067 0
endloop
endfacet
facet normal 0.4711305340615984 0.881423234005311 -0.03360211943392233
outer loop
vertex 18.76425136195184 35.107422235428885 74
vertex 17.807542781039096 32.79772340415067 0
vertex 14.350628713690876 34.645482469173245 0
endloop
endfacet
facet normal 0.4711305340615984 0.881423234005311 -0.03360211943392233
outer loop
vertex 18.76425136195184 35.107422235428885 74
vertex 14.350628713690876 34.645482469173245 0
vertex 15.307337294603599 36.955181300451464 74
endloop
endfacet
facet normal 0.6340350355107215 0.7725739261161139 -0.03360211943392239
outer loop
vertex 24.249106628803915 31.595845267496724 74
vertex 28.284271247461895 28.28427124746191 74
vertex 26.51650429449553 26.51650429449554 -2.220446049250313e-16
endloop
endfacet
facet normal 0.6340350355107215 0.7725739261161139 -0.03360211943392239
outer loop
vertex 24.249106628803915 31.595845267496724 74
vertex 26.51650429449553 26.51650429449554 -2.220446049250313e-16
vertex 22.860181046254905 29.517171236740364 0
endloop
endfacet
facet normal 0.6340350355107215 0.7725739261161139 -0.03360211943392239
outer loop
vertex 24.249106628803915 31.595845267496724 74
vertex 22.860181046254905 29.517171236740364 0
vertex 20.833883738235073 31.18011046134546 -4.440892098500626e-16
endloop
endfacet
facet normal 0.6340350355107215 0.7725739261161139 -0.03360211943392239
outer loop
vertex 24.249106628803915 31.595845267496724 74
vertex 20.833883738235073 31.18011046134546 -4.440892098500626e-16
vertex 22.222809320784076 33.25878449210182 74
endloop
endfacet
facet normal 0.7725739261161136 0.6340350355107216 -0.033602119433922446
outer loop
vertex 29.444886323803743 26.870057685088806 74
vertex 33.2587844921018 22.222809320784084 73.99999999999999
vertex 31.18011046134544 20.833883738235077 0
endloop
endfacet
facet normal 0.7725739261161136 0.6340350355107216 -0.033602119433922446
outer loop
vertex 29.444886323803743 26.870057685088806 74
vertex 31.18011046134544 20.833883738235077 0
vertex 27.677119370837374 25.102290732122437 0
endloop
endfacet
facet normal 0.7725739261161136 0.6340350355107216 -0.033602119433922446
outer loop
vertex 29.444886323803743 26.870057685088806 74
vertex 27.677119370837374 25.102290732122437 0
vertex 26.51650429449553 26.51650429449554 -2.220446049250313e-16
endloop
endfacet
facet normal 0.7725739261161136 0.6340350355107216 -0.033602119433922446
outer loop
vertex 29.444886323803743 26.870057685088806 74
vertex 26.51650429449553 26.51650429449554 -2.220446049250313e-16
vertex 28.284271247461895 28.28427124746191 74
endloop
endfacet
facet normal 0.8814232340053106 0.4711305340615993 -0.033602119433922446
outer loop
vertex 33.85270144480533 21.11166885474486 74
vertex 36.95518130045146 15.307337294603613 74
vertex 34.64548246917324 14.350628713690888 2.220446049250313e-16
endloop
endfacet
facet normal 0.8814232340053106 0.4711305340615993 -0.033602119433922446
outer loop
vertex 33.85270144480533 21.11166885474486 74
vertex 34.64548246917324 14.350628713690888 2.220446049250313e-16
vertex 31.774027414048966 19.72274327219585 0
endloop
endfacet
facet normal 0.8814232340053106 0.4711305340615993 -0.033602119433922446
outer loop
vertex 33.85270144480533 21.11166885474486 74
vertex 31.774027414048966 19.72274327219585 0
vertex 31.18011046134544 20.833883738235077 0
endloop
endfacet
facet normal 0.8814232340053106 0.4711305340615993 -0.033602119433922446
outer loop
vertex 33.85270144480533 21.11166885474486 74
vertex 31.18011046134544 20.833883738235077 0
vertex 33.2587844921018 22.222809320784084 73.99999999999999
endloop
endfacet
facet normal 0.9563999413195287 0.29012075040153634 -0.03360211943392235
outer loop
vertex 37.18735280061032 14.541970429873393 74
vertex 39.23141121612921 7.803612880645149 74
vertex 36.77944801512114 7.315887075604826 -2.220446049250313e-16
endloop
endfacet
facet normal 0.9563999413195287 0.29012075040153634 -0.03360211943392235
outer loop
vertex 37.18735280061032 14.541970429873393 74
vertex 36.77944801512114 7.315887075604826 -2.220446049250313e-16
vertex 34.8776539693321 13.585261848960672 0
endloop
endfacet
facet normal 0.9563999413195287 0.29012075040153634 -0.03360211943392235
outer loop
vertex 37.18735280061032 14.541970429873393 74
vertex 34.8776539693321 13.585261848960672 0
vertex 34.64548246917324 14.350628713690888 2.220446049250313e-16
endloop
endfacet
facet normal 0.9563999413195287 0.29012075040153634 -0.03360211943392235
outer loop
vertex 37.18735280061032 14.541970429873393 74
vertex 34.64548246917324 14.350628713690888 2.220446049250313e-16
vertex 36.95518130045146 15.307337294603613 74
endloop
endfacet
facet normal 0.9946227352441036 0.0979617890051332 -0.033602119433922314
outer loop
vertex 39.26984065532275 7.413432236612896 74
vertex 40 0 74.00000000000001
vertex 37.50000000000001 -4.440892098500626e-16 0
endloop
endfacet
facet normal 0.9946227352441036 0.0979617890051332 -0.033602119433922314
outer loop
vertex 39.26984065532275 7.413432236612896 74
vertex 37.50000000000001 -4.440892098500626e-16 0
vertex 36.81787745431468 6.925706431572571 0
endloop
endfacet
facet normal 0.9946227352441036 0.0979617890051332 -0.033602119433922314
outer loop
vertex 39.26984065532275 7.413432236612896 74
vertex 36.81787745431468 6.925706431572571 0
vertex 36.77944801512114 7.315887075604826 -2.220446049250313e-16
endloop
endfacet
facet normal 0.9946227352441036 0.0979617890051332 -0.033602119433922314
outer loop
vertex 39.26984065532275 7.413432236612896 74
vertex 36.77944801512114 7.315887075604826 -2.220446049250313e-16
vertex 39.23141121612921 7.803612880645149 74
endloop
endfacet
facet normal -0.9946227352441037 0.09796178900513274 0.033602119433922426
outer loop
vertex 38 -4.440892098500626e-16 74
vertex 35.50000000000001 0 0
vertex 34.81787745431469 -6.925706431572554 0
endloop
endfacet
facet normal -0.9946227352441037 0.09796178900513274 0.033602119433922426
outer loop
vertex 38 -4.440892098500626e-16 74
vertex 34.81787745431469 -6.925706431572554 0
vertex 37.26984065532276 -7.413432236612874 74
endloop
endfacet
facet normal -0.9563999413195287 0.290120750401536 0.033602119433922335
outer loop
vertex 37.26984065532276 -7.413432236612874 74
vertex 34.81787745431469 -6.925706431572554 0
vertex 32.79772340415068 -13.585261848960688 0
endloop
endfacet
facet normal -0.9563999413195287 0.290120750401536 0.033602119433922335
outer loop
vertex 37.26984065532276 -7.413432236612874 74
vertex 32.79772340415068 -13.585261848960688 0
vertex 35.10742223542889 -14.541970429873409 73.99999999999997
endloop
endfacet
facet normal -0.8814232340053106 0.47113053406159916 0.03360211943392244
outer loop
vertex 35.10742223542889 -14.541970429873409 73.99999999999997
vertex 32.79772340415068 -13.585261848960688 0
vertex 29.517171236740353 -19.722743272195878 0
endloop
endfacet
facet normal -0.8814232340053106 0.47113053406159916 0.03360211943392244
outer loop
vertex 35.10742223542889 -14.541970429873409 73.99999999999997
vertex 29.517171236740353 -19.722743272195878 0
vertex 31.59584526749672 -21.11166885474488 74
endloop
endfacet
facet normal -0.772573926116113 0.6340350355107227 0.03360211943392244
outer loop
vertex 31.59584526749672 -21.11166885474488 74
vertex 29.517171236740353 -19.722743272195878 0
vertex 25.10229073212244 -25.102290732122434 0
endloop
endfacet
facet normal -0.772573926116113 0.6340350355107227 0.03360211943392244
outer loop
vertex 31.59584526749672 -21.11166885474488 74
vertex 25.10229073212244 -25.102290732122434 0
vertex 26.870057685088813 -26.870057685088806 74
endloop
endfacet
facet normal -0.6340350355107229 0.7725739261161126 0.033602119433922426
outer loop
vertex 26.870057685088813 -26.870057685088806 74
vertex 25.10229073212244 -25.102290732122434 0
vertex 19.722743272195878 -29.517171236740353 0
endloop
endfacet
facet normal -0.6340350355107229 0.7725739261161126 0.033602119433922426
outer loop
vertex 26.870057685088813 -26.870057685088806 74
vertex 19.722743272195878 -29.517171236740353 0
vertex 21.111668854744888 -31.59584526749672 74
endloop
endfacet
facet normal -0.47113053406159916 0.8814232340053109 0.03360211943392244
outer loop
vertex 21.111668854744888 -31.59584526749672 74
vertex 19.722743272195878 -29.517171236740353 0
vertex 13.585261848960691 -32.79772340415069 2.220446049250313e-16
endloop
endfacet
facet normal -0.47113053406159916 0.8814232340053109 0.03360211943392244
outer loop
vertex 21.111668854744888 -31.59584526749672 74
vertex 13.585261848960691 -32.79772340415069 2.220446049250313e-16
vertex 14.541970429873416 -35.1074222354289 74.00000000000003
endloop
endfacet
facet normal -0.29012075040153606 0.9563999413195288 0.033602119433922446
outer loop
vertex 14.541970429873416 -35.1074222354289 74.00000000000003
vertex 13.585261848960691 -32.79772340415069 2.220446049250313e-16
vertex 6.925706431572555 -34.81787745431468 0
endloop
endfacet
facet normal -0.29012075040153606 0.9563999413195288 0.033602119433922446
outer loop
vertex 14.541970429873416 -35.1074222354289 74.00000000000003
vertex 6.925706431572555 -34.81787745431468 0
vertex 7.413432236612879 -37.26984065532276 74
endloop
endfacet
facet normal -0.09796178900513272 0.9946227352441037 0.033602119433922335
outer loop
vertex 7.413432236612879 -37.26984065532276 74
vertex 6.925706431572555 -34.81787745431468 0
vertex 3.1086244689504383e-15 -35.500000000000014 -4.440892098500626e-16
endloop
endfacet
facet normal -0.09796178900513272 0.9946227352441037 0.033602119433922335
outer loop
vertex 7.413432236612879 -37.26984065532276 74
vertex 3.1086244689504383e-15 -35.500000000000014 -4.440892098500626e-16
vertex 3.1086244689504383e-15 -38 74
endloop
endfacet
facet normal 0.09796178900513285 0.9946227352441037 0.033602119433922426
outer loop
vertex 3.1086244689504383e-15 -38 74
vertex 3.1086244689504383e-15 -35.500000000000014 -4.440892098500626e-16
vertex -6.925706431572544 -34.81787745431469 0
endloop
endfacet
facet normal 0.09796178900513285 0.9946227352441037 0.033602119433922426
outer loop
vertex 3.1086244689504383e-15 -38 74
vertex -6.925706431572544 -34.81787745431469 0
vertex -7.413432236612863 -37.26984065532276 74
endloop
endfacet
facet normal 0.2901207504015357 0.9563999413195288 0.033602119433922426
outer loop
vertex -7.413432236612863 -37.26984065532276 74
vertex -6.925706431572544 -34.81787745431469 0
vertex -13.585261848960684 -32.797723404150666 -2.220446049250313e-16
endloop
endfacet
facet normal 0.2901207504015357 0.9563999413195288 0.033602119433922426
outer loop
vertex -7.413432236612863 -37.26984065532276 74
vertex -13.585261848960684 -32.797723404150666 -2.220446049250313e-16
vertex -14.541970429873405 -35.107422235428885 73.99999999999997
endloop
endfacet
facet normal 0.47113053406159916 0.8814232340053109 0.03360211943392244
outer loop
vertex -14.541970429873405 -35.107422235428885 73.99999999999997
vertex -13.585261848960684 -32.797723404150666 -2.220446049250313e-16
vertex -19.722743272195878 -29.51717123674037 0
endloop
endfacet
facet normal 0.47113053406159916 0.8814232340053109 0.03360211943392244
outer loop
vertex -14.541970429873405 -35.107422235428885 73.99999999999997
vertex -19.722743272195878 -29.51717123674037 0
vertex -21.11166885474488 -31.59584526749674 74.00000000000003
endloop
endfacet
facet normal 0.6340350355107224 0.772573926116113 0.033602119433922405
outer loop
vertex -21.11166885474488 -31.59584526749674 74.00000000000003
vertex -19.722743272195878 -29.51717123674037 0
vertex -25.102290732122427 -25.10229073212243 0
endloop
endfacet
facet normal 0.6340350355107224 0.772573926116113 0.033602119433922405
outer loop
vertex -21.11166885474488 -31.59584526749674 74.00000000000003
vertex -25.102290732122427 -25.10229073212243 0
vertex -26.8700576850888 -26.870057685088796 73.99999999999997
endloop
endfacet
facet normal 0.7725739261161125 0.6340350355107229 0.03360211943392242
outer loop
vertex -26.8700576850888 -26.870057685088796 73.99999999999997
vertex -25.102290732122427 -25.10229073212243 0
vertex -29.51717123674035 -19.72274327219587 0
endloop
endfacet
facet normal 0.7725739261161125 0.6340350355107229 0.03360211943392242
outer loop
vertex -26.8700576850888 -26.870057685088796 73.99999999999997
vertex -29.51717123674035 -19.72274327219587 0
vertex -31.595845267496713 -21.111668854744874 73.99999999999997
endloop
endfacet
facet normal 0.8814232340053109 0.47113053406159905 0.03360211943392244
outer loop
vertex -31.595845267496713 -21.111668854744874 73.99999999999997
vertex -29.51717123674035 -19.72274327219587 0
vertex -32.79772340415068 -13.585261848960691 0
endloop
endfacet
facet normal 0.8814232340053109 0.47113053406159905 0.03360211943392244
outer loop
vertex -31.595845267496713 -21.111668854744874 73.99999999999997
vertex -32.79772340415068 -13.585261848960691 0
vertex -35.1074222354289 -14.541970429873416 74
endloop
endfacet
facet normal 0.9563999413195287 0.29012075040153645 0.033602119433922446
outer loop
vertex -35.1074222354289 -14.541970429873416 74
vertex -32.79772340415068 -13.585261848960691 0
vertex -34.81787745431468 -6.925706431572566 2.220446049250313e-16
endloop
endfacet
facet normal 0.9563999413195287 0.29012075040153645 0.033602119433922446
outer loop
vertex -35.1074222354289 -14.541970429873416 74
vertex -34.81787745431468 -6.925706431572566 2.220446049250313e-16
vertex -37.26984065532276 -7.413432236612888 74.00000000000001
endloop
endfacet
facet normal 0.9946227352441037 0.09796178900513261 0.033602119433922335
outer loop
vertex -37.26984065532276 -7.413432236612888 74.00000000000001
vertex -34.81787745431468 -6.925706431572566 2.220446049250313e-16
vertex -35.500000000000014 -5.329070518200751e-15 -4.440892098500626e-16
endloop
endfacet
facet normal 0.9946227352441037 0.09796178900513261 0.033602119433922335
outer loop
vertex -37.26984065532276 -7.413432236612888 74.00000000000001
vertex -35.500000000000014 -5.329070518200751e-15 -4.440892098500626e-16
vertex -38 -4.884981308350689e-15 74
endloop
endfacet
facet normal 0.9946227352441035 -0.0979617890051334 0.03360211943392242
outer loop
vertex -38 -4.884981308350689e-15 74
vertex -35.500000000000014 -5.329070518200751e-15 -4.440892098500626e-16
vertex -34.817877454314676 6.925706431572572 2.220446049250313e-16
endloop
endfacet
facet normal 0.9946227352441035 -0.0979617890051334 0.03360211943392242
outer loop
vertex -38 -4.884981308350689e-15 74
vertex -34.817877454314676 6.925706431572572 2.220446049250313e-16
vertex -37.269840655322746 7.413432236612895 74
endloop
endfacet
facet normal 0.9563999413195289 -0.2901207504015358 0.033602119433922446
outer loop
vertex -37.269840655322746 7.413432236612895 74
vertex -34.817877454314676 6.925706431572572 2.220446049250313e-16
vertex -32.797723404150695 13.58526184896067 -2.220446049250313e-16
endloop
endfacet
facet normal 0.9563999413195289 -0.2901207504015358 0.033602119433922446
outer loop
vertex -37.269840655322746 7.413432236612895 74
vertex -32.797723404150695 13.58526184896067 -2.220446049250313e-16
vertex -35.10742223542891 14.541970429873393 74.00000000000001
endloop
endfacet
facet normal 0.881423234005311 -0.47113053406159877 0.03360211943392244
outer loop
vertex -35.10742223542891 14.541970429873393 74.00000000000001
vertex -32.797723404150695 13.58526184896067 -2.220446049250313e-16
vertex -29.517171236740374 19.722743272195856 0
endloop
endfacet
facet normal 0.881423234005311 -0.47113053406159877 0.03360211943392244
outer loop
vertex -35.10742223542891 14.541970429873393 74.00000000000001
vertex -29.517171236740374 19.722743272195856 0
vertex -31.595845267496742 21.111668854744863 74
endloop
endfacet
facet normal 0.7725739261161139 -0.6340350355107215 0.03360211943392241
outer loop
vertex -31.595845267496742 21.111668854744863 74
vertex -29.517171236740374 19.722743272195856 0
vertex -25.102290732122448 25.102290732122434 -2.220446049250313e-16
endloop
endfacet
facet normal 0.7725739261161139 -0.6340350355107215 0.03360211943392241
outer loop
vertex -31.595845267496742 21.111668854744863 74
vertex -25.102290732122448 25.102290732122434 -2.220446049250313e-16
vertex -26.870057685088817 26.8700576850888 74
endloop
endfacet
facet normal 0.6340350355107222 -0.7725739261161132 0.03360211943392242
outer loop
vertex -26.870057685088817 26.8700576850888 74
vertex -25.102290732122448 25.102290732122434 -2.220446049250313e-16
vertex -19.722743272195878 29.517171236740353 0
endloop
endfacet
facet normal 0.6340350355107222 -0.7725739261161132 0.03360211943392242
outer loop
vertex -26.870057685088817 26.8700576850888 74
vertex -19.722743272195878 29.517171236740353 0
vertex -21.111668854744885 31.595845267496717 74
endloop
endfacet
facet normal 0.4711305340615996 -0.8814232340053105 0.03360211943392244
outer loop
vertex -21.111668854744885 31.595845267496717 74
vertex -19.722743272195878 29.517171236740353 0
vertex -13.585261848960709 32.79772340415067 0
endloop
endfacet
facet normal 0.4711305340615996 -0.8814232340053105 0.03360211943392244
outer loop
vertex -21.111668854744885 31.595845267496717 74
vertex -13.585261848960709 32.79772340415067 0
vertex -14.541970429873436 35.107422235428885 74
endloop
endfacet
facet normal 0.2901207504015359 -0.9563999413195289 0.033602119433922356
outer loop
vertex -14.541970429873436 35.107422235428885 74
vertex -13.585261848960709 32.79772340415067 0
vertex -6.925706431572568 34.81787745431468 0
endloop
endfacet
facet normal 0.2901207504015359 -0.9563999413195289 0.033602119433922356
outer loop
vertex -14.541970429873436 35.107422235428885 74
vertex -6.925706431572568 34.81787745431468 0
vertex -7.413432236612888 37.26984065532275 74
endloop
endfacet
facet normal 0.09796178900513361 -0.9946227352441035 0.03360211943392243
outer loop
vertex -7.413432236612888 37.26984065532275 74
vertex -6.925706431572568 34.81787745431468 0
vertex -5.329070518200751e-15 35.5 2.220446049250313e-16
endloop
endfacet
facet normal 0.09796178900513361 -0.9946227352441035 0.03360211943392243
outer loop
vertex -7.413432236612888 37.26984065532275 74
vertex -5.329070518200751e-15 35.5 2.220446049250313e-16
vertex -5.773159728050814e-15 37.99999999999999 74
endloop
endfacet
facet normal -0.09796178900513261 -0.9946227352441037 0.033602119433922426
outer loop
vertex -5.773159728050814e-15 37.99999999999999 74
vertex -5.329070518200751e-15 35.5 2.220446049250313e-16
vertex 6.925706431572555 34.81787745431469 0
endloop
endfacet
facet normal -0.09796178900513261 -0.9946227352441037 0.033602119433922426
outer loop
vertex -5.773159728050814e-15 37.99999999999999 74
vertex 6.925706431572555 34.81787745431469 0
vertex 7.413432236612876 37.26984065532276 74
endloop
endfacet
facet normal -0.2901207504015368 -0.9563999413195285 0.03360211943392234
outer loop
vertex 7.413432236612876 37.26984065532276 74
vertex 6.925706431572555 34.81787745431469 0
vertex 13.585261848960696 32.79772340415067 0
endloop
endfacet
facet normal -0.2901207504015368 -0.9563999413195285 0.03360211943392234
outer loop
vertex 7.413432236612876 37.26984065532276 74
vertex 13.585261848960696 32.79772340415067 0
vertex 14.541970429873416 35.107422235428885 74
endloop
endfacet
facet normal -0.47113053406159877 -0.8814232340053111 0.03360211943392245
outer loop
vertex 14.541970429873416 35.107422235428885 74
vertex 13.585261848960696 32.79772340415067 0
vertex 19.722743272195874 29.517171236740367 0
endloop
endfacet
facet normal -0.47113053406159877 -0.8814232340053111 0.03360211943392245
outer loop
vertex 14.541970429873416 35.107422235428885 74
vertex 19.722743272195874 29.517171236740367 0
vertex 21.111668854744877 31.595845267496742 74.00000000000001
endloop
endfacet
facet normal -0.6340350355107222 -0.7725739261161133 0.03360211943392241
outer loop
vertex 21.111668854744877 31.595845267496742 74.00000000000001
vertex 19.722743272195874 29.517171236740367 0
vertex 25.10229073212243 25.102290732122444 0
endloop
endfacet
facet normal -0.6340350355107222 -0.7725739261161133 0.03360211943392241
outer loop
vertex 21.111668854744877 31.595845267496742 74.00000000000001
vertex 25.10229073212243 25.102290732122444 0
vertex 26.8700576850888 26.870057685088817 74
endloop
endfacet
facet normal -0.7725739261161131 -0.6340350355107225 0.033602119433922426
outer loop
vertex 26.8700576850888 26.870057685088817 74
vertex 25.10229073212243 25.102290732122444 0
vertex 29.51717123674036 19.722743272195878 0
endloop
endfacet
facet normal -0.7725739261161131 -0.6340350355107225 0.033602119433922426
outer loop
vertex 26.8700576850888 26.870057685088817 74
vertex 29.51717123674036 19.722743272195878 0
vertex 31.595845267496724 21.111668854744885 74
endloop
endfacet
facet normal -0.8814232340053104 -0.4711305340615997 0.03360211943392244
outer loop
vertex 31.595845267496724 21.111668854744885 74
vertex 29.51717123674036 19.722743272195878 0
vertex 32.79772340415067 13.585261848960709 0
endloop
endfacet
facet normal -0.8814232340053104 -0.4711305340615997 0.03360211943392244
outer loop
vertex 31.595845267496724 21.111668854744885 74
vertex 32.79772340415067 13.585261848960709 0
vertex 35.10742223542889 14.541970429873437 74
endloop
endfacet
facet normal -0.9563999413195289 -0.2901207504015359 0.03360211943392236
outer loop
vertex 35.10742223542889 14.541970429873437 74
vertex 32.79772340415067 13.585261848960709 0
vertex 34.81787745431468 6.92570643157257 0
endloop
endfacet
facet normal -0.9563999413195289 -0.2901207504015359 0.03360211943392236
outer loop
vertex 35.10742223542889 14.541970429873437 74
vertex 34.81787745431468 6.92570643157257 0
vertex 37.26984065532275 7.4134322366128895 74
endloop
endfacet
facet normal -0.9946227352441035 -0.09796178900513361 0.03360211943392243
outer loop
vertex 37.26984065532275 7.4134322366128895 74
vertex 34.81787745431468 6.92570643157257 0
vertex 35.50000000000001 0 0
endloop
endfacet
facet normal -0.9946227352441035 -0.09796178900513361 0.03360211943392243
outer loop
vertex 37.26984065532275 7.4134322366128895 74
vertex 35.50000000000001 0 0
vertex 38 -4.440892098500626e-16 74
endloop
endfacet
facet normal -1.925187388181516e-17 -2.370121106547684e-16 -1
outer loop
vertex 7.315887075604811 36.77944801512115 -2.220446049250313e-16
vertex 11.533661932762245 35.5 0
vertex -5.329070518200751e-15 35.5 2.220446049250313e-16
endloop
endfacet
facet normal -1.925187388181516e-17 -2.370121106547684e-16 -1
outer loop
vertex 7.315887075604811 36.77944801512115 -2.220446049250313e-16
vertex -5.329070518200751e-15 35.5 2.220446049250313e-16
vertex -11.53366193276226 35.5 0
endloop
endfacet
facet normal -1.925187388181516e-17 -2.370121106547684e-16 -1
outer loop
vertex 7.315887075604811 36.77944801512115 -2.220446049250313e-16
vertex -11.53366193276226 35.5 0
vertex -7.315887075604824 36.77944801512115 -2.220446049250313e-16
endloop
endfacet
facet normal -1.925187388181516e-17 -2.370121106547684e-16 -1
outer loop
vertex 7.315887075604811 36.77944801512115 -2.220446049250313e-16
vertex -7.315887075604824 36.77944801512115 -2.220446049250313e-16
vertex -6.217248937900877e-15 37.5 -2.220446049250313e-16
endloop
endfacet
facet normal 0 0 -1
outer loop
vertex -5.329070518200751e-15 35.5 2.220446049250313e-16
vertex -6.925706431572568 34.81787745431468 0
vertex -13.782318610243088 34.81787745431468 0
endloop
endfacet
facet normal 0 0 -1
outer loop
vertex -5.329070518200751e-15 35.5 2.220446049250313e-16
vertex -13.782318610243088 34.81787745431468 0
vertex -11.53366193276226 35.5 0
endloop
endfacet
facet normal 0 0 -1
outer loop
vertex 11.533661932762245 35.5 0
vertex 13.782318610243072 34.81787745431468 0
vertex 6.925706431572555 34.81787745431469 0
endloop
endfacet
facet normal 0 0 -1
outer loop
vertex 11.533661932762245 35.5 0
vertex 6.925706431572555 34.81787745431469 0
vertex -5.329070518200751e-15 35.5 2.220446049250313e-16
endloop
endfacet
facet normal 0 0 -1
outer loop
vertex -6.925706431572568 34.81787745431468 0
vertex -13.585261848960709 32.79772340415067 0
vertex -17.80754278103911 32.79772340415067 0
endloop
endfacet
facet normal 0 0 -1
outer loop
vertex -6.925706431572568 34.81787745431468 0
vertex -17.80754278103911 32.79772340415067 0
vertex -14.350628713690897 34.64548246917325 -4.440892098500626e-16
endloop
endfacet
facet normal 0 0 -1
outer loop
vertex -6.925706431572568 34.81787745431468 0
vertex -14.350628713690897 34.64548246917325 -4.440892098500626e-16
vertex -13.782318610243088 34.81787745431468 0
endloop
endfacet
facet normal 0 0 -1
outer loop
vertex 13.782318610243072 34.81787745431468 0
vertex 14.350628713690876 34.645482469173245 0
vertex 17.807542781039096 32.79772340415067 0
endloop
endfacet
facet normal 0 0 -1
outer loop
vertex 13.782318610243072 34.81787745431468 0
vertex 17.807542781039096 32.79772340415067 0
vertex 13.585261848960696 32.79772340415067 0
endloop
endfacet
facet normal 0 0 -1
outer loop
vertex 13.782318610243072 34.81787745431468 0
vertex 13.585261848960696 32.79772340415067 0
vertex 6.925706431572555 34.81787745431469 0
endloop
endfacet
facet normal 0 0 -1
outer loop
vertex -13.585261848960709 32.79772340415067 0
vertex -19.722743272195878 29.517171236740353 0
vertex -22.86018104625491 29.517171236740364 0
endloop
endfacet
facet normal 0 0 -1
outer loop
vertex -13.585261848960709 32.79772340415067 0
vertex -22.86018104625491 29.517171236740364 0
vertex -20.833883738235084 31.180110461345446 -2.220446049250313e-16
endloop
endfacet
facet normal 0 0 -1
outer loop
vertex -13.585261848960709 32.79772340415067 0
vertex -20.833883738235084 31.180110461345446 -2.220446049250313e-16
vertex -17.80754278103911 32.79772340415067 0
endloop
endfacet
facet normal 0 0 -1
outer loop
vertex 17.807542781039096 32.79772340415067 0
vertex 20.833883738235073 31.18011046134546 -4.440892098500626e-16
vertex 22.860181046254905 29.517171236740364 0
endloop
endfacet
facet normal 0 0 -1
outer loop
vertex 17.807542781039096 32.79772340415067 0
vertex 22.860181046254905 29.517171236740364 0
vertex 19.722743272195874 29.517171236740367 0
endloop
endfacet
facet normal 0 0 -1
outer loop
vertex 17.807542781039096 32.79772340415067 0
vertex 19.722743272195874 29.517171236740367 0
vertex 13.585261848960696 32.79772340415067 0
endloop
endfacet
facet normal 0 0 -1
outer loop
vertex -19.722743272195878 29.517171236740353 0
vertex -25.102290732122448 25.102290732122434 -2.220446049250313e-16
vertex -27.677119370837374 25.102290732122437 0
endloop
endfacet
facet normal 0 0 -1
outer loop
vertex -19.722743272195878 29.517171236740353 0
vertex -27.677119370837374 25.102290732122437 0
vertex -26.516504294495544 26.51650429449553 -4.440892098500626e-16
endloop
endfacet
facet normal 0 0 -1
outer loop
vertex -19.722743272195878 29.517171236740353 0
vertex -26.516504294495544 26.51650429449553 -4.440892098500626e-16
vertex -22.86018104625491 29.517171236740364 0
endloop
endfacet
facet normal 0 0 -1
outer loop
vertex 22.860181046254905 29.517171236740364 0
vertex 26.51650429449553 26.51650429449554 -2.220446049250313e-16
vertex 27.677119370837374 25.102290732122437 0
endloop
endfacet
facet normal 0 0 -1
outer loop
vertex 22.860181046254905 29.517171236740364 0
vertex 27.677119370837374 25.102290732122437 0
vertex 25.10229073212243 25.102290732122444 0
endloop
endfacet
facet normal 0 0 -1
outer loop
vertex 22.860181046254905 29.517171236740364 0
vertex 25.10229073212243 25.102290732122444 0
vertex 19.722743272195874 29.517171236740367 0
endloop
endfacet
facet normal 0 0 -1
outer loop
vertex -25.102290732122448 25.102290732122434 -2.220446049250313e-16
vertex -29.517171236740374 19.722743272195856 0
vertex -31.774027414048973 19.72274327219585 0
endloop
endfacet
facet normal 0 0 -1
outer loop
vertex -25.102290732122448 25.102290732122434 -2.220446049250313e-16
vertex -31.774027414048973 19.72274327219585 0
vertex -31.180110461345475 20.833883738235063 0
endloop
endfacet
facet normal 0 0 -1
outer loop
vertex -25.102290732122448 25.102290732122434 -2.220446049250313e-16
vertex -31.180110461345475 20.833883738235063 0
vertex -27.677119370837374 25.102290732122437 0
endloop
endfacet
facet normal 0 0 -1
outer loop
vertex 27.677119370837374 25.102290732122437 0
vertex 31.18011046134544 20.833883738235077 0
vertex 31.774027414048966 19.72274327219585 0
endloop
endfacet
facet normal 0 0 -1
outer loop
vertex 27.677119370837374 25.102290732122437 0
vertex 31.774027414048966 19.72274327219585 0
vertex 29.51717123674036 19.722743272195878 0
endloop
endfacet
facet normal 0 0 -1
outer loop
vertex 27.677119370837374 25.102290732122437 0
vertex 29.51717123674036 19.722743272195878 0
vertex 25.10229073212243 25.102290732122444 0
endloop
endfacet
facet normal 0 0 -1
outer loop
vertex -29.517171236740374 19.722743272195856 0
vertex -32.797723404150695 13.58526184896067 -2.220446049250313e-16
vertex -34.87765396933211 13.585261848960672 0
endloop
endfacet
facet normal 0 0 -1
outer loop
vertex -29.517171236740374 19.722743272195856 0
vertex -34.87765396933211 13.585261848960672 0
vertex -34.64548246917326 14.350628713690842 -4.440892098500626e-16
endloop
endfacet
facet normal 0 0 -1
outer loop
vertex -29.517171236740374 19.722743272195856 0
vertex -34.64548246917326 14.350628713690842 -4.440892098500626e-16
vertex -31.774027414048973 19.72274327219585 0
endloop
endfacet
facet normal 0 0 -1
outer loop
vertex 31.774027414048966 19.72274327219585 0
vertex 34.64548246917324 14.350628713690888 2.220446049250313e-16
vertex 34.8776539693321 13.585261848960672 0
endloop
endfacet
facet normal 0 0 -1
outer loop
vertex 31.774027414048966 19.72274327219585 0
vertex 34.8776539693321 13.585261848960672 0
vertex 32.79772340415067 13.585261848960709 0
endloop
endfacet
facet normal 0 0 -1
outer loop
vertex 31.774027414048966 19.72274327219585 0
vertex 32.79772340415067 13.585261848960709 0
vertex 29.51717123674036 19.722743272195878 0
endloop
endfacet
facet normal 0 0 -1
outer loop
vertex -32.797723404150695 13.58526184896067 -2.220446049250313e-16
vertex -34.817877454314676 6.925706431572572 2.220446049250313e-16
vertex -36.81787745431468 6.925706431572571 0
endloop
endfacet
facet normal 0 0 -1
outer loop
vertex -32.797723404150695 13.58526184896067 -2.220446049250313e-16
vertex -36.81787745431468 6.925706431572571 0
vertex -36.77944801512115 7.315887075604831 0
endloop
endfacet
facet normal 0 0 -1
outer loop
vertex -32.797723404150695 13.58526184896067 -2.220446049250313e-16
vertex -36.77944801512115 7.315887075604831 0
vertex -34.87765396933211 13.585261848960672 0
endloop
endfacet
facet normal 0 0 -1
outer loop
vertex 34.8776539693321 13.585261848960672 0
vertex 36.77944801512114 7.315887075604826 -2.220446049250313e-16
vertex 36.81787745431468 6.925706431572571 0
endloop
endfacet
facet normal 0 0 -1
outer loop
vertex 34.8776539693321 13.585261848960672 0
vertex 36.81787745431468 6.925706431572571 0
vertex 34.81787745431468 6.92570643157257 0
endloop
endfacet
facet normal 0 0 -1
outer loop
vertex 34.8776539693321 13.585261848960672 0
vertex 34.81787745431468 6.92570643157257 0
vertex 32.79772340415067 13.585261848960709 0
endloop
endfacet
facet normal 0 0 -1
outer loop
vertex -34.817877454314676 6.925706431572572 2.220446049250313e-16
vertex -35.500000000000014 -5.329070518200751e-15 -4.440892098500626e-16
vertex -37.5 -4.440892098500626e-15 0
endloop
endfacet
facet normal 0 0 -1
outer loop
vertex -34.817877454314676 6.925706431572572 2.220446049250313e-16
vertex -37.5 -4.440892098500626e-15 0
vertex -36.81787745431468 6.925706431572571 0
endloop
endfacet
facet normal 0 0 -1
outer loop
vertex 36.81787745431468 6.925706431572571 0
vertex 37.50000000000001 -4.440892098500626e-16 0
vertex 35.50000000000001 0 0
endloop
endfacet
facet normal 0 0 -1
outer loop
vertex 36.81787745431468 6.925706431572571 0
vertex 35.50000000000001 0 0
vertex 34.81787745431468 6.92570643157257 0
endloop
endfacet
facet normal 0 0 -1
outer loop
vertex -35.500000000000014 -5.329070518200751e-15 -4.440892098500626e-16
vertex -34.81787745431468 -6.925706431572566 2.220446049250313e-16
vertex -36.81787745431468 -6.925706431572553 0
endloop
endfacet
facet normal 0 0 -1
outer loop
vertex -35.500000000000014 -5.329070518200751e-15 -4.440892098500626e-16
vertex -36.81787745431468 -6.925706431572553 0
vertex -37.5 -4.440892098500626e-15 0
endloop
endfacet
facet normal 0 0 -1
outer loop
vertex 37.50000000000001 -4.440892098500626e-16 0
vertex 36.81787745431468 -6.925706431572553 0
vertex 34.81787745431469 -6.925706431572554 0
endloop
endfacet
facet normal 0 0 -1
outer loop
vertex 37.50000000000001 -4.440892098500626e-16 0
vertex 34.81787745431469 -6.925706431572554 0
vertex 35.50000000000001 0 0
endloop
endfacet
facet normal 0 0 -1
outer loop
vertex -34.81787745431468 -6.925706431572566 2.220446049250313e-16
vertex -32.79772340415068 -13.585261848960691 0
vertex -34.8776539693321 -13.585261848960688 0
endloop
endfacet
facet normal 0 0 -1
outer loop
vertex -34.81787745431468 -6.925706431572566 2.220446049250313e-16
vertex -34.8776539693321 -13.585261848960688 0
vertex -36.779448015121154 -7.3158870756048255 -4.440892098500626e-16
endloop
endfacet
facet normal 0 0 -1
outer loop
vertex -34.81787745431468 -6.925706431572566 2.220446049250313e-16
vertex -36.779448015121154 -7.3158870756048255 -4.440892098500626e-16
vertex -36.81787745431468 -6.925706431572553 0
endloop
endfacet
facet normal 0 0 -1
outer loop
vertex 36.81787745431468 -6.925706431572553 0
vertex 36.77944801512115 -7.31588707560481 0
vertex 34.8776539693321 -13.585261848960688 0
endloop
endfacet
facet normal 0 0 -1
outer loop
vertex 36.81787745431468 -6.925706431572553 0
vertex 34.8776539693321 -13.585261848960688 0
vertex 32.79772340415068 -13.585261848960688 0
endloop
endfacet
facet normal 0 0 -1
outer loop
vertex 36.81787745431468 -6.925706431572553 0
vertex 32.79772340415068 -13.585261848960688 0
vertex 34.81787745431469 -6.925706431572554 0
endloop
endfacet
facet normal 0 0 -1
outer loop
vertex -32.79772340415068 -13.585261848960691 0
vertex -29.51717123674035 -19.72274327219587 0
vertex -31.774027414048955 -19.722743272195878 0
endloop
endfacet
facet normal 0 0 -1
outer loop
vertex -32.79772340415068 -13.585261848960691 0
vertex -31.774027414048955 -19.722743272195878 0
vertex -34.64548246917325 -14.350628713690872 0
endloop
endfacet
facet normal 0 0 -1
outer loop
vertex -32.79772340415068 -13.585261848960691 0
vertex -34.64548246917325 -14.350628713690872 0
vertex -34.8776539693321 -13.585261848960688 0
endloop
endfacet
facet normal 0 0 -1
outer loop
vertex 34.8776539693321 -13.585261848960688 0
vertex 34.64548246917326 -14.350628713690867 2.220446049250313e-16
vertex 31.774027414048952 -19.722743272195878 0
endloop
endfacet
facet normal 0 0 -1
outer loop
vertex 34.8776539693321 -13.585261848960688 0
vertex 31.774027414048952 -19.722743272195878 0
vertex 29.517171236740353 -19.722743272195878 0
endloop
endfacet
facet normal 0 0 -1
outer loop
vertex 34.8776539693321 -13.585261848960688 0
vertex 29.517171236740353 -19.722743272195878 0
vertex 32.79772340415068 -13.585261848960688 0
endloop
endfacet
facet normal 0 0 -1
outer loop
vertex -29.51717123674035 -19.72274327219587 0
vertex -25.102290732122427 -25.10229073212243 0
vertex -27.677119370837378 -25.102290732122434 0
endloop
endfacet
facet normal 0 0 -1
outer loop
vertex -29.51717123674035 -19.72274327219587 0
vertex -27.677119370837378 -25.102290732122434 0
vertex -31.180110461345443 -20.833883738235077 0
endloop
endfacet
facet normal 0 0 -1
outer loop
vertex -29.51717123674035 -19.72274327219587 0
vertex -31.180110461345443 -20.833883738235077 0
vertex -31.774027414048955 -19.722743272195878 0
endloop
endfacet
facet normal 0 0 -1
outer loop
vertex 31.774027414048952 -19.722743272195878 0
vertex 31.18011046134544 -20.833883738235077 2.220446049250313e-16
vertex 27.677119370837378 -25.102290732122434 0
endloop
endfacet
facet normal 0 0 -1
outer loop
vertex 31.774027414048952 -19.722743272195878 0
vertex 27.677119370837378 -25.102290732122434 0
vertex 25.10229073212244 -25.102290732122434 0
endloop
endfacet
facet normal 0 0 -1
outer loop
vertex 31.774027414048952 -19.722743272195878 0
vertex 25.10229073212244 -25.102290732122434 0
vertex 29.517171236740353 -19.722743272195878 0
endloop
endfacet
facet normal 0 0 -1
outer loop
vertex -25.102290732122427 -25.10229073212243 0
vertex -19.722743272195878 -29.51717123674037 0
vertex -22.860181046254915 -29.517171236740356 0
endloop
endfacet
facet normal 0 0 -1
outer loop
vertex -25.102290732122427 -25.10229073212243 0
vertex -22.860181046254915 -29.517171236740356 0
vertex -26.516504294495533 -26.516504294495526 0
endloop
endfacet
facet normal 0 0 -1
outer loop
vertex -25.102290732122427 -25.10229073212243 0
vertex -26.516504294495533 -26.516504294495526 0
vertex -27.677119370837378 -25.102290732122434 0
endloop
endfacet
facet normal 0 0 -1
outer loop
vertex 27.677119370837378 -25.102290732122434 0
vertex 26.516504294495526 -26.51650429449553 2.220446049250313e-16
vertex 22.860181046254922 -29.517171236740356 0
endloop
endfacet
facet normal 0 0 -1
outer loop
vertex 27.677119370837378 -25.102290732122434 0
vertex 22.860181046254922 -29.517171236740356 0
vertex 19.722743272195878 -29.517171236740353 0
endloop
endfacet
facet normal 0 0 -1
outer loop
vertex 27.677119370837378 -25.102290732122434 0
vertex 19.722743272195878 -29.517171236740353 0
vertex 25.10229073212244 -25.102290732122434 0
endloop
endfacet
facet normal 0 0 -1
outer loop
vertex -19.722743272195878 -29.51717123674037 0
vertex -13.585261848960684 -32.797723404150666 -2.220446049250313e-16
vertex -17.80754278103909 -32.79772340415068 0
endloop
endfacet
facet normal 0 0 -1
outer loop
vertex -19.722743272195878 -29.51717123674037 0
vertex -17.80754278103909 -32.79772340415068 0
vertex -20.833883738235077 -31.180110461345457 4.440892098500626e-16
endloop
endfacet
facet normal 0 0 -1
outer loop
vertex -19.722743272195878 -29.51717123674037 0
vertex -20.833883738235077 -31.180110461345457 4.440892098500626e-16
vertex -22.860181046254915 -29.517171236740356 0
endloop
endfacet
facet normal 0 0 -1
outer loop
vertex 22.860181046254922 -29.517171236740356 0
vertex 20.833883738235095 -31.180110461345457 2.220446049250313e-16
vertex 17.807542781039096 -32.79772340415068 0
endloop
endfacet
facet normal 0 0 -1
outer loop
vertex 22.860181046254922 -29.517171236740356 0
vertex 17.807542781039096 -32.79772340415068 0
vertex 13.585261848960691 -32.79772340415069 2.220446049250313e-16
endloop
endfacet
facet normal 0 0 -1
outer loop
vertex 22.860181046254922 -29.517171236740356 0
vertex 13.585261848960691 -32.79772340415069 2.220446049250313e-16
vertex 19.722743272195878 -29.517171236740353 0
endloop
endfacet
facet normal 0 0 -1
outer loop
vertex -13.585261848960684 -32.797723404150666 -2.220446049250313e-16
vertex -6.925706431572544 -34.81787745431469 0
vertex -13.782318610243083 -34.81787745431468 0
endloop
endfacet
facet normal 0 0 -1
outer loop
vertex -13.585261848960684 -32.797723404150666 -2.220446049250313e-16
vertex -13.782318610243083 -34.81787745431468 0
vertex -14.350628713690863 -34.645482469173245 2.220446049250313e-16
endloop
endfacet
facet normal 0 0 -1
outer loop
vertex -13.585261848960684 -32.797723404150666 -2.220446049250313e-16
vertex -14.350628713690863 -34.645482469173245 2.220446049250313e-16
vertex -17.80754278103909 -32.79772340415068 0
endloop
endfacet
facet normal 0 0 -1
outer loop
vertex 17.807542781039096 -32.79772340415068 0
vertex 14.350628713690872 -34.64548246917325 0
vertex 13.78231861024309 -34.81787745431468 0
endloop
endfacet
facet normal 0 0 -1
outer loop
vertex 17.807542781039096 -32.79772340415068 0
vertex 13.78231861024309 -34.81787745431468 0
vertex 6.925706431572555 -34.81787745431468 0
endloop
endfacet
facet normal 0 0 -1
outer loop
vertex 17.807542781039096 -32.79772340415068 0
vertex 6.925706431572555 -34.81787745431468 0
vertex 13.585261848960691 -32.79772340415069 2.220446049250313e-16
endloop
endfacet
facet normal 0 0 -1
outer loop
vertex -6.925706431572544 -34.81787745431469 0
vertex 3.1086244689504383e-15 -35.500000000000014 -4.440892098500626e-16
vertex -11.533661932762245 -35.5 0
endloop
endfacet
facet normal 0 0 -1
outer loop
vertex -6.925706431572544 -34.81787745431469 0
vertex -11.533661932762245 -35.5 0
vertex -13.782318610243083 -34.81787745431468 0
endloop
endfacet
facet normal 0 0 -1
outer loop
vertex 13.78231861024309 -34.81787745431468 0
vertex 11.533661932762254 -35.5 0
vertex 3.1086244689504383e-15 -35.500000000000014 -4.440892098500626e-16
endloop
endfacet
facet normal 0 0 -1
outer loop
vertex 13.78231861024309 -34.81787745431468 0
vertex 3.1086244689504383e-15 -35.500000000000014 -4.440892098500626e-16
vertex 6.925706431572555 -34.81787745431468 0
endloop
endfacet
facet normal 3.850374776363069e-17 -3.004770335373125e-16 -1
outer loop
vertex 3.1086244689504383e-15 -35.500000000000014 -4.440892098500626e-16
vertex 11.533661932762254 -35.5 0
vertex 7.315887075604811 -36.77944801512115 2.220446049250313e-16
endloop
endfacet
facet normal 3.850374776363069e-17 -3.004770335373125e-16 -1
outer loop
vertex 3.1086244689504383e-15 -35.500000000000014 -4.440892098500626e-16
vertex 7.315887075604811 -36.77944801512115 2.220446049250313e-16
vertex 2.6645352591003757e-15 -37.50000000000001 2.220446049250313e-16
endloop
endfacet
facet normal 3.850374776363069e-17 -3.004770335373125e-16 -1
outer loop
vertex 3.1086244689504383e-15 -35.500000000000014 -4.440892098500626e-16
vertex 2.6645352591003757e-15 -37.50000000000001 2.220446049250313e-16
vertex -7.315887075604799 -36.77944801512115 0
endloop
endfacet
facet normal 3.850374776363069e-17 -3.004770335373125e-16 -1
outer loop
vertex 3.1086244689504383e-15 -35.500000000000014 -4.440892098500626e-16
vertex -7.315887075604799 -36.77944801512115 0
vertex -11.533661932762245 -35.5 0
endloop
endfacet
facet normal -6.91212541999365e-30 1.1540299884446287e-14 1
outer loop
vertex 7.803612880645132 -39.231411216129224 74.00000000000001
vertex 11.863031633754655 -37.99999999999999 74
vertex 3.1086244689504383e-15 -38 74
endloop
endfacet
facet normal -6.91212541999365e-30 1.1540299884446287e-14 1
outer loop
vertex 7.803612880645132 -39.231411216129224 74.00000000000001
vertex 3.1086244689504383e-15 -38 74
vertex -11.863031633754657 -37.99999999999999 74
endloop
endfacet
facet normal -6.91212541999365e-30 1.1540299884446287e-14 1
outer loop
vertex 7.803612880645132 -39.231411216129224 74.00000000000001
vertex -11.863031633754657 -37.99999999999999 74
vertex -7.80361288064512 -39.23141121612922 74
endloop
endfacet
facet normal -6.91212541999365e-30 1.1540299884446287e-14 1
outer loop
vertex 7.803612880645132 -39.231411216129224 74.00000000000001
vertex -7.80361288064512 -39.23141121612922 74
vertex 2.220446049250313e-15 -40 74.00000000000001
endloop
endfacet
facet normal 0 0 1
outer loop
vertex 3.1086244689504383e-15 -38 74
vertex -7.413432236612863 -37.26984065532276 74
vertex -14.270044415283385 -37.26984065532277 74
endloop
endfacet
facet normal 0 0 1
outer loop
vertex 3.1086244689504383e-15 -38 74
vertex -14.270044415283385 -37.26984065532277 74
vertex -11.863031633754657 -37.99999999999999 74
endloop
endfacet
facet normal 0 0 1
outer loop
vertex 11.863031633754655 -37.99999999999999 74
vertex 14.270044415283394 -37.26984065532277 74
vertex 7.413432236612879 -37.26984065532276 74
endloop
endfacet
facet normal 0 0 1
outer loop
vertex 11.863031633754655 -37.99999999999999 74
vertex 7.413432236612879 -37.26984065532276 74
vertex 3.1086244689504383e-15 -38 74
endloop
endfacet
facet normal 0 0 1
outer loop
vertex -7.413432236612863 -37.26984065532276 74
vertex -14.541970429873405 -35.107422235428885 73.99999999999997
vertex -18.764251361951843 -35.107422235428885 74
endloop
endfacet
facet normal 0 0 1
outer loop
vertex -7.413432236612863 -37.26984065532276 74
vertex -18.764251361951843 -35.107422235428885 74
vertex -15.307337294603588 -36.955181300451464 73.99999999999999
endloop
endfacet
facet normal 0 0 1
outer loop
vertex -7.413432236612863 -37.26984065532276 74
vertex -15.307337294603588 -36.955181300451464 73.99999999999999
vertex -14.270044415283385 -37.26984065532277 74
endloop
endfacet
facet normal 0 0 1
outer loop
vertex 14.270044415283394 -37.26984065532277 74
vertex 15.307337294603592 -36.955181300451464 74.00000000000001
vertex 18.764251361951846 -35.107422235428885 74
endloop
endfacet
facet normal 0 0 1
outer loop
vertex 14.270044415283394 -37.26984065532277 74
vertex 18.764251361951846 -35.107422235428885 74
vertex 14.541970429873416 -35.1074222354289 74.00000000000003
endloop
endfacet
facet normal 0 0 1
outer loop
vertex 14.270044415283394 -37.26984065532277 74
vertex 14.541970429873416 -35.1074222354289 74.00000000000003
vertex 7.413432236612879 -37.26984065532276 74
endloop
endfacet
facet normal 0 0 1
outer loop
vertex -14.541970429873405 -35.107422235428885 73.99999999999997
vertex -21.11166885474488 -31.59584526749674 74.00000000000003
vertex -24.24910662880391 -31.595845267496728 74
endloop
endfacet
facet normal 0 0 1
outer loop
vertex -14.541970429873405 -35.107422235428885 73.99999999999997
vertex -24.24910662880391 -31.595845267496728 74
vertex -22.222809320784087 -33.25878449210182 74.00000000000003
endloop
endfacet
facet normal 0 0 1
outer loop
vertex -14.541970429873405 -35.107422235428885 73.99999999999997
vertex -22.222809320784087 -33.25878449210182 74.00000000000003
vertex -18.764251361951843 -35.107422235428885 74
endloop
endfacet
facet normal 0 0 1
outer loop
vertex 18.764251361951846 -35.107422235428885 74
vertex 22.2228093207841 -33.25878449210182 74.00000000000003
vertex 24.24910662880392 -31.595845267496728 74
endloop
endfacet
facet normal 0 0 1
outer loop
vertex 18.764251361951846 -35.107422235428885 74
vertex 24.24910662880392 -31.595845267496728 74
vertex 21.111668854744888 -31.59584526749672 74
endloop
endfacet
facet normal 0 0 1
outer loop
vertex 18.764251361951846 -35.107422235428885 74
vertex 21.111668854744888 -31.59584526749672 74
vertex 14.541970429873416 -35.1074222354289 74.00000000000003
endloop
endfacet
facet normal 0 0 1
outer loop
vertex -21.11166885474488 -31.59584526749674 74.00000000000003
vertex -26.8700576850888 -26.870057685088796 73.99999999999997
vertex -29.444886323803747 -26.870057685088803 74
endloop
endfacet
facet normal 0 0 1
outer loop
vertex -21.11166885474488 -31.59584526749674 74.00000000000003
vertex -29.444886323803747 -26.870057685088803 74
vertex -28.284271247461895 -28.284271247461895 74
endloop
endfacet
facet normal 0 0 1
outer loop
vertex -21.11166885474488 -31.59584526749674 74.00000000000003
vertex -28.284271247461895 -28.284271247461895 74
vertex -24.24910662880391 -31.595845267496728 74
endloop
endfacet
facet normal 0 0 1
outer loop
vertex 24.24910662880392 -31.595845267496728 74
vertex 28.2842712474619 -28.2842712474619 74
vertex 29.444886323803747 -26.870057685088803 74
endloop
endfacet
facet normal 0 0 1
outer loop
vertex 24.24910662880392 -31.595845267496728 74
vertex 29.444886323803747 -26.870057685088803 74
vertex 26.870057685088813 -26.870057685088806 74
endloop
endfacet
facet normal 0 0 1
outer loop
vertex 24.24910662880392 -31.595845267496728 74
vertex 26.870057685088813 -26.870057685088806 74
vertex 21.111668854744888 -31.59584526749672 74
endloop
endfacet
facet normal 0 0 1
outer loop
vertex -26.8700576850888 -26.870057685088796 73.99999999999997
vertex -31.595845267496713 -21.111668854744874 73.99999999999997
vertex -33.85270144480532 -21.111668854744885 74
endloop
endfacet
facet normal 0 0 1
outer loop
vertex -26.8700576850888 -26.870057685088796 73.99999999999997
vertex -33.85270144480532 -21.111668854744885 74
vertex -33.2587844921018 -22.222809320784084 74
endloop
endfacet
facet normal 0 0 1
outer loop
vertex -26.8700576850888 -26.870057685088796 73.99999999999997
vertex -33.2587844921018 -22.222809320784084 74
vertex -29.444886323803747 -26.870057685088803 74
endloop
endfacet
facet normal 0 0 1
outer loop
vertex 29.444886323803747 -26.870057685088803 74
vertex 33.258784492101796 -22.222809320784087 74
vertex 33.85270144480532 -21.111668854744885 74
endloop
endfacet
facet normal 0 0 1
outer loop
vertex 29.444886323803747 -26.870057685088803 74
vertex 33.85270144480532 -21.111668854744885 74
vertex 31.59584526749672 -21.11166885474488 74
endloop
endfacet
facet normal 0 0 1
outer loop
vertex 29.444886323803747 -26.870057685088803 74
vertex 31.59584526749672 -21.11166885474488 74
vertex 26.870057685088813 -26.870057685088806 74
endloop
endfacet
facet normal 0 0 1
outer loop
vertex -31.595845267496713 -21.111668854744874 73.99999999999997
vertex -35.1074222354289 -14.541970429873416 74
vertex -37.18735280061033 -14.541970429873412 74
endloop
endfacet
facet normal 0 0 1
outer loop
vertex -31.595845267496713 -21.111668854744874 73.99999999999997
vertex -37.18735280061033 -14.541970429873412 74
vertex -36.955181300451464 -15.307337294603593 74
endloop
endfacet
facet normal 0 0 1
outer loop
vertex -31.595845267496713 -21.111668854744874 73.99999999999997
vertex -36.955181300451464 -15.307337294603593 74
vertex -33.85270144480532 -21.111668854744885 74
endloop
endfacet
facet normal 0 0 1
outer loop
vertex 33.85270144480532 -21.111668854744885 74
vertex 36.95518130045148 -15.307337294603593 74.00000000000001
vertex 37.18735280061032 -14.541970429873412 74
endloop
endfacet
facet normal 0 0 1
outer loop
vertex 33.85270144480532 -21.111668854744885 74
vertex 37.18735280061032 -14.541970429873412 74
vertex 35.10742223542889 -14.541970429873409 73.99999999999997
endloop
endfacet
facet normal 0 0 1
outer loop
vertex 33.85270144480532 -21.111668854744885 74
vertex 35.10742223542889 -14.541970429873409 73.99999999999997
vertex 31.59584526749672 -21.11166885474488 74
endloop
endfacet
facet normal 0 0 1
outer loop
vertex -35.1074222354289 -14.541970429873416 74
vertex -37.26984065532276 -7.413432236612888 74.00000000000001
vertex -39.26984065532276 -7.4134322366128735 74
endloop
endfacet
facet normal 0 0 1
outer loop
vertex -35.1074222354289 -14.541970429873416 74
vertex -39.26984065532276 -7.4134322366128735 74
vertex -39.23141121612923 -7.803612880645149 74
endloop
endfacet
facet normal 0 0 1
outer loop
vertex -35.1074222354289 -14.541970429873416 74
vertex -39.23141121612923 -7.803612880645149 74
vertex -37.18735280061033 -14.541970429873412 74
endloop
endfacet
facet normal 0 0 1
outer loop
vertex 37.18735280061032 -14.541970429873412 74
vertex 39.23141121612922 -7.803612880645131 74.00000000000001
vertex 39.26984065532275 -7.4134322366128735 74
endloop
endfacet
facet normal 0 0 1
outer loop
vertex 37.18735280061032 -14.541970429873412 74
vertex 39.26984065532275 -7.4134322366128735 74
vertex 37.26984065532276 -7.413432236612874 74
endloop
endfacet
facet normal 0 0 1
outer loop
vertex 37.18735280061032 -14.541970429873412 74
vertex 37.26984065532276 -7.413432236612874 74
vertex 35.10742223542889 -14.541970429873409 73.99999999999997
endloop
endfacet
facet normal 0 0 1
outer loop
vertex -37.26984065532276 -7.413432236612888 74.00000000000001
vertex -38 -4.884981308350689e-15 74
vertex -40 -4.884981308350689e-15 74
endloop
endfacet
facet normal 0 0 1
outer loop
vertex -37.26984065532276 -7.413432236612888 74.00000000000001
vertex -40 -4.884981308350689e-15 74
vertex -39.26984065532276 -7.4134322366128735 74
endloop
endfacet
facet normal 0 0 1
outer loop
vertex 39.26984065532275 -7.4134322366128735 74
vertex 40 0 74.00000000000001
vertex 38 -4.440892098500626e-16 74
endloop
endfacet
facet normal 0 0 1
outer loop
vertex 39.26984065532275 -7.4134322366128735 74
vertex 38 -4.440892098500626e-16 74
vertex 37.26984065532276 -7.413432236612874 74
endloop
endfacet
facet normal 0 0 1
outer loop
vertex -38 -4.884981308350689e-15 74
vertex -37.269840655322746 7.413432236612895 74
vertex -39.26984065532275 7.413432236612896 74
endloop
endfacet
facet normal 0 0 1
outer loop
vertex -38 -4.884981308350689e-15 74
vertex -39.26984065532275 7.413432236612896 74
vertex -40 -4.884981308350689e-15 74
endloop
endfacet
facet normal 0 0 1
outer loop
vertex 40 0 74.00000000000001
vertex 39.26984065532275 7.413432236612896 74
vertex 37.26984065532275 7.4134322366128895 74
endloop
endfacet
facet normal 0 0 1
outer loop
vertex 40 0 74.00000000000001
vertex 37.26984065532275 7.4134322366128895 74
vertex 38 -4.440892098500626e-16 74
endloop
endfacet
facet normal 0 0 1
outer loop
vertex -37.269840655322746 7.413432236612895 74
vertex -35.10742223542891 14.541970429873393 74.00000000000001
vertex -37.18735280061033 14.541970429873393 74
endloop
endfacet
facet normal 0 0 1
outer loop
vertex -37.269840655322746 7.413432236612895 74
vertex -37.18735280061033 14.541970429873393 74
vertex -39.231411216129224 7.803612880645154 74.00000000000001
endloop
endfacet
facet normal 0 0 1
outer loop
vertex -37.269840655322746 7.413432236612895 74
vertex -39.231411216129224 7.803612880645154 74.00000000000001
vertex -39.26984065532275 7.413432236612896 74
endloop
endfacet
facet normal 0 0 1
outer loop
vertex 39.26984065532275 7.413432236612896 74
vertex 39.23141121612921 7.803612880645149 74
vertex 37.18735280061032 14.541970429873393 74
endloop
endfacet
facet normal 0 0 1
outer loop
vertex 39.26984065532275 7.413432236612896 74
vertex 37.18735280061032 14.541970429873393 74
vertex 35.10742223542889 14.541970429873437 74
endloop
endfacet
facet normal 0 0 1
outer loop
vertex 39.26984065532275 7.413432236612896 74
vertex 35.10742223542889 14.541970429873437 74
vertex 37.26984065532275 7.4134322366128895 74
endloop
endfacet
facet normal 0 0 1
outer loop
vertex -35.10742223542891 14.541970429873393 74.00000000000001
vertex -31.595845267496742 21.111668854744863 74
vertex -33.85270144480533 21.11166885474486 74
endloop
endfacet
facet normal 0 0 1
outer loop
vertex -35.10742223542891 14.541970429873393 74.00000000000001
vertex -33.85270144480533 21.11166885474486 74
vertex -36.95518130045147 15.307337294603563 73.99999999999997
endloop
endfacet
facet normal 0 0 1
outer loop
vertex -35.10742223542891 14.541970429873393 74.00000000000001
vertex -36.95518130045147 15.307337294603563 73.99999999999997
vertex -37.18735280061033 14.541970429873393 74
endloop
endfacet
facet normal 0 0 1
outer loop
vertex 37.18735280061032 14.541970429873393 74
vertex 36.95518130045146 15.307337294603613 74
vertex 33.85270144480533 21.11166885474486 74
endloop
endfacet
facet normal 0 0 1
outer loop
vertex 37.18735280061032 14.541970429873393 74
vertex 33.85270144480533 21.11166885474486 74
vertex 31.595845267496724 21.111668854744885 74
endloop
endfacet
facet normal 0 0 1
outer loop
vertex 37.18735280061032 14.541970429873393 74
vertex 31.595845267496724 21.111668854744885 74
vertex 35.10742223542889 14.541970429873437 74
endloop
endfacet
facet normal 0 0 1
outer loop
vertex -31.595845267496742 21.111668854744863 74
vertex -26.870057685088817 26.8700576850888 74
vertex -29.444886323803747 26.870057685088806 74
endloop
endfacet
facet normal 0 0 1
outer loop
vertex -31.595845267496742 21.111668854744863 74
vertex -29.444886323803747 26.870057685088806 74
vertex -33.25878449210184 22.222809320784066 74.00000000000001
endloop
endfacet
facet normal 0 0 1
outer loop
vertex -31.595845267496742 21.111668854744863 74
vertex -33.25878449210184 22.222809320784066 74.00000000000001
vertex -33.85270144480533 21.11166885474486 74
endloop
endfacet
facet normal 0 0 1
outer loop
vertex 33.85270144480533 21.11166885474486 74
vertex 33.2587844921018 22.222809320784084 73.99999999999999
vertex 29.444886323803743 26.870057685088806 74
endloop
endfacet
facet normal 0 0 1
outer loop
vertex 33.85270144480533 21.11166885474486 74
vertex 29.444886323803743 26.870057685088806 74
vertex 26.8700576850888 26.870057685088817 74
endloop
endfacet
facet normal 0 0 1
outer loop
vertex 33.85270144480533 21.11166885474486 74
vertex 26.8700576850888 26.870057685088817 74
vertex 31.595845267496724 21.111668854744885 74
endloop
endfacet
facet normal 0 0 1
outer loop
vertex -26.870057685088817 26.8700576850888 74
vertex -21.111668854744885 31.595845267496717 74
vertex -24.249106628803922 31.595845267496724 74
endloop
endfacet
facet normal 0 0 1
outer loop
vertex -26.870057685088817 26.8700576850888 74
vertex -24.249106628803922 31.595845267496724 74
vertex -28.28427124746191 28.284271247461895 74
endloop
endfacet
facet normal 0 0 1
outer loop
vertex -26.870057685088817 26.8700576850888 74
vertex -28.28427124746191 28.284271247461895 74
vertex -29.444886323803747 26.870057685088806 74
endloop
endfacet
facet normal 0 0 1
outer loop
vertex 29.444886323803743 26.870057685088806 74
vertex 28.284271247461895 28.28427124746191 74
vertex 24.249106628803915 31.595845267496724 74
endloop
endfacet
facet normal 0 0 1
outer loop
vertex 29.444886323803743 26.870057685088806 74
vertex 24.249106628803915 31.595845267496724 74
vertex 21.111668854744877 31.595845267496742 74.00000000000001
endloop
endfacet
facet normal 0 0 1
outer loop
vertex 29.444886323803743 26.870057685088806 74
vertex 21.111668854744877 31.595845267496742 74.00000000000001
vertex 26.8700576850888 26.870057685088817 74
endloop
endfacet
facet normal 0 0 1
outer loop
vertex -21.111668854744885 31.595845267496717 74
vertex -14.541970429873436 35.107422235428885 74
vertex -18.764251361951843 35.107422235428885 74
endloop
endfacet
facet normal 0 0 1
outer loop
vertex -21.111668854744885 31.595845267496717 74
vertex -18.764251361951843 35.107422235428885 74
vertex -22.222809320784087 33.25878449210181 74
endloop
endfacet
facet normal 0 0 1
outer loop
vertex -21.111668854744885 31.595845267496717 74
vertex -22.222809320784087 33.25878449210181 74
vertex -24.249106628803922 31.595845267496724 74
endloop
endfacet
facet normal 0 0 1
outer loop
vertex 24.249106628803915 31.595845267496724 74
vertex 22.222809320784076 33.25878449210182 74
vertex 18.76425136195184 35.107422235428885 74
endloop
endfacet
facet normal 0 0 1
outer loop
vertex 24.249106628803915 31.595845267496724 74
vertex 18.76425136195184 35.107422235428885 74
vertex 14.541970429873416 35.107422235428885 74
endloop
endfacet
facet normal 0 0 1
outer loop
vertex 24.249106628803915 31.595845267496724 74
vertex 14.541970429873416 35.107422235428885 74
vertex 21.111668854744877 31.595845267496742 74.00000000000001
endloop
endfacet
facet normal 0 0 1
outer loop
vertex -14.541970429873436 35.107422235428885 74
vertex -7.413432236612888 37.26984065532275 74
vertex -14.270044415283461 37.26984065532274 74
endloop
endfacet
facet normal 0 0 1
outer loop
vertex -14.541970429873436 35.107422235428885 74
vertex -14.270044415283461 37.26984065532274 74
vertex -15.307337294603624 36.955181300451464 74
endloop
endfacet
facet normal 0 0 1
outer loop
vertex -14.541970429873436 35.107422235428885 74
vertex -15.307337294603624 36.955181300451464 74
vertex -18.764251361951843 35.107422235428885 74
endloop
endfacet
facet normal 0 0 1
outer loop
vertex 18.76425136195184 35.107422235428885 74
vertex 15.307337294603599 36.955181300451464 74
vertex 14.270044415283445 37.26984065532274 74
endloop
endfacet
facet normal 0 0 1
outer loop
vertex 18.76425136195184 35.107422235428885 74
vertex 14.270044415283445 37.26984065532274 74
vertex 7.413432236612876 37.26984065532276 74
endloop
endfacet
facet normal 0 0 1
outer loop
vertex 18.76425136195184 35.107422235428885 74
vertex 7.413432236612876 37.26984065532276 74
vertex 14.541970429873416 35.107422235428885 74
endloop
endfacet
facet normal 0 0 1
outer loop
vertex -7.413432236612888 37.26984065532275 74
vertex -5.773159728050814e-15 37.99999999999999 74
vertex -11.863031633754613 38 74
endloop
endfacet
facet normal 0 0 1
outer loop
vertex -7.413432236612888 37.26984065532275 74
vertex -11.863031633754613 38 74
vertex -14.270044415283461 37.26984065532274 74
endloop
endfacet
facet normal 0 0 1
outer loop
vertex 14.270044415283445 37.26984065532274 74
vertex 11.863031633754604 38 74
vertex -5.773159728050814e-15 37.99999999999999 74
endloop
endfacet
facet normal 0 0 1
outer loop
vertex 14.270044415283445 37.26984065532274 74
vertex -5.773159728050814e-15 37.99999999999999 74
vertex 7.413432236612876 37.26984065532276 74
endloop
endfacet
facet normal 0 0 1
outer loop
vertex -5.773159728050814e-15 37.99999999999999 74
vertex 11.863031633754604 38 74
vertex 7.803612880645133 39.23141121612922 74
endloop
endfacet
facet normal 0 0 1
outer loop
vertex -5.773159728050814e-15 37.99999999999999 74
vertex 7.803612880645133 39.23141121612922 74
vertex -6.217248937900877e-15 39.99999999999999 74
endloop
endfacet
facet normal 0 0 1
outer loop
vertex -5.773159728050814e-15 37.99999999999999 74
vertex -6.217248937900877e-15 39.99999999999999 74
vertex -7.803612880645147 39.23141121612922 74
endloop
endfacet
facet normal 0 0 1
outer loop
vertex -5.773159728050814e-15 37.99999999999999 74
vertex -7.803612880645147 39.23141121612922 74
vertex -11.863031633754613 38 74
endloop
endfacet
endsolid csg.js
