solid csg.js
facet normal -1 0 0
outer loop
vertex 31.5 -11.5 0
vertex 31.5 -11.5 6
vertex 31.5 -8.5 6
endloop
endfacet
facet normal -1 0 0
outer loop
vertex 31.5 -11.5 0
vertex 31.5 -8.5 6
vertex 31.5 -8.5 5.892857142857142
endloop
endfacet
facet normal -1 0 0
outer loop
vertex 31.5 -11.5 0
vertex 31.5 -8.5 5.892857142857142
vertex 31.5 -8.5 5.837271704023628
endloop
endfacet
facet normal -1 0 0
outer loop
vertex 31.5 -11.5 0
vertex 31.5 -8.5 5.837271704023628
vertex 31.5 -8.5 5.672651504764791
endloop
endfacet
facet normal -1 0 0
outer loop
vertex 31.5 -11.5 0
vertex 31.5 -8.5 5.672651504764791
vertex 31.5 -8.5 5.405322807018075
endloop
endfacet
facet normal -1 0 0
outer loop
vertex 31.5 -11.5 0
vertex 31.5 -8.5 5.405322807018075
vertex 31.5 -8.5 5.045558902718239
endloop
endfacet
facet normal -1 0 0
outer loop
vertex 31.5 -11.5 0
vertex 31.5 -8.5 5.045558902718239
vertex 31.5 -8.5 4.607185316949576
endloop
endfacet
facet normal -1 0 0
outer loop
vertex 31.5 -11.5 0
vertex 31.5 -8.5 4.607185316949576
vertex 31.5 -8.5 4.107048500770425
endloop
endfacet
facet normal -1 0 0
outer loop
vertex 31.5 -11.5 0
vertex 31.5 -8.5 4.107048500770425
vertex 31.5 -8.5 3.564368431546706
endloop
endfacet
facet normal -1 0 0
outer loop
vertex 31.5 -11.5 0
vertex 31.5 -8.5 3.564368431546706
vertex 31.5 -8.5 2.9999999999999734
endloop
endfacet
facet normal -1 0 0
outer loop
vertex 31.5 -11.5 0
vertex 31.5 -8.5 2.9999999999999734
vertex 31.5 -8.5 2.4356315684533767
endloop
endfacet
facet normal -1 0 0
outer loop
vertex 31.5 -11.5 0
vertex 31.5 -8.5 2.4356315684533767
vertex 31.5 -8.5 1.8929514992295429
endloop
endfacet
facet normal -1 0 0
outer loop
vertex 31.5 -11.5 0
vertex 31.5 -8.5 1.8929514992295429
vertex 31.5 -8.5 1.3928146830504595
endloop
endfacet
facet normal -1 0 0
outer loop
vertex 31.5 -11.5 0
vertex 31.5 -8.5 1.3928146830504595
vertex 31.5 -8.5 0.95444109728178
endloop
endfacet
facet normal -1 0 0
outer loop
vertex 31.5 -11.5 0
vertex 31.5 -8.5 0.95444109728178
vertex 31.5 -8.5 0.5946771929819208
endloop
endfacet
facet normal -1 0 0
outer loop
vertex 31.5 -11.5 0
vertex 31.5 -8.5 0.5946771929819208
vertex 31.5 -8.5 0.327348495235206
endloop
endfacet
facet normal -1 0 0
outer loop
vertex 31.5 -11.5 0
vertex 31.5 -8.5 0.327348495235206
vertex 31.5 -8.5 0.16272829597637117
endloop
endfacet
facet normal -1 0 0
outer loop
vertex 31.5 -11.5 0
vertex 31.5 -8.5 0.16272829597637117
vertex 31.5 -8.5 0.10714285714285772
endloop
endfacet
facet normal -1 0 0
outer loop
vertex 31.5 -11.5 0
vertex 31.5 -8.5 0.10714285714285772
vertex 31.5 -8.5 0
endloop
endfacet
facet normal 1 0 0
outer loop
vertex 48.5 -11.5 0
vertex 48.5 -8.5 0
vertex 48.5 -8.5 6
endloop
endfacet
facet normal 1 0 0
outer loop
vertex 48.5 -11.5 0
vertex 48.5 -8.5 6
vertex 48.5 -11.5 6
endloop
endfacet
facet normal 0 -1 0
outer loop
vertex 31.5 -11.5 0
vertex 48.5 -11.5 0
vertex 48.5 -11.5 6
endloop
endfacet
facet normal 0 -1 0
outer loop
vertex 31.5 -11.5 0
vertex 48.5 -11.5 6
vertex 31.5 -11.5 6
endloop
endfacet
facet normal 0 0 -1
outer loop
vertex 88 72.5 0
vertex 88 69.5 0
vertex 85 69.5 0
endloop
endfacet
facet normal 0 0 -1
outer loop
vertex 88 72.5 0
vertex 85 69.5 0
vertex 61.81172867510452 69.5 0
endloop
endfacet
facet normal 0 0 -1
outer loop
vertex 88 72.5 0
vertex 61.81172867510452 69.5 0
vertex 58.76544883944729 69.5 0
endloop
endfacet
facet normal 0 0 -1
outer loop
vertex 88 72.5 0
vertex 58.76544883944729 69.5 0
vertex 58 69.5 0
endloop
endfacet
facet normal 0 0 -1
outer loop
vertex 88 72.5 0
vertex 58 69.5 0
vertex 58 72.5 0
endloop
endfacet
facet normal 0 0 -1
outer loop
vertex 88 69.5 0
vertex 88 43.5 0
vertex 85 43.5 0
endloop
endfacet
facet normal 0 0 -1
outer loop
vertex 88 69.5 0
vertex 85 43.5 0
vertex 85 69.5 0
endloop
endfacet
facet normal 0 0 -1
outer loop
vertex 85 43.5 0
vertex 88 43.5 0
vertex 88 40.5 0
endloop
endfacet
facet normal 0 0 -1
outer loop
vertex 85 43.5 0
vertex 88 40.5 0
vertex 73 40.5 0
endloop
endfacet
facet normal 0 0 -1
outer loop
vertex 85 43.5 0
vertex 73 40.5 0
vertex 73 43.5 0
endloop
endfacet
facet normal 0 0 -1
outer loop
vertex 61.81172867510452 69.5 0
vertex 48.058224179844245 -8.5 0
vertex 45.011944344187015 -8.5 0
endloop
endfacet
facet normal 0 0 -1
outer loop
vertex 61.81172867510452 69.5 0
vertex 45.011944344187015 -8.5 0
vertex 58.76544883944729 69.5 0
endloop
endfacet
facet normal 0 0 -1
outer loop
vertex 45.011944344187015 -8.5 0
vertex 48.058224179844245 -8.5 0
vertex 48.5 -8.5 0
endloop
endfacet
facet normal 0 0 -1
outer loop
vertex 45.011944344187015 -8.5 0
vertex 48.5 -8.5 0
vertex 48.5 -11.5 0
endloop
endfacet
facet normal 0 0 -1
outer loop
vertex 45.011944344187015 -8.5 0
vertex 48.5 -11.5 0
vertex 31.5 -11.5 0
endloop
endfacet
facet normal 0 0 -1
outer loop
vertex 45.011944344187015 -8.5 0
vertex 31.5 -11.5 0
vertex 31.5 -8.5 0
endloop
endfacet
facet normal 0 0 1
outer loop
vertex 48.5 -11.5 6
vertex 48.5 -8.5 6
vertex 48.058224179844245 -8.5 6
endloop
endfacet
facet normal 0 0 1
outer loop
vertex 48.5 -11.5 6
vertex 48.058224179844245 -8.5 6
vertex 45.011944344187015 -8.5 6
endloop
endfacet
facet normal 0 0 1
outer loop
vertex 48.5 -11.5 6
vertex 45.011944344187015 -8.5 6
vertex 31.5 -8.5 6
endloop
endfacet
facet normal 0 0 1
outer loop
vertex 48.5 -11.5 6
vertex 31.5 -8.5 6
vertex 31.5 -11.5 6
endloop
endfacet
facet normal 0 0 1
outer loop
vertex 88 40.5 6
vertex 88 43.5 6
vertex 85 43.5 6
endloop
endfacet
facet normal 0 0 1
outer loop
vertex 88 40.5 6
vertex 85 43.5 6
vertex 73 43.5 6
endloop
endfacet
facet normal 0 0 1
outer loop
vertex 88 40.5 6
vertex 73 43.5 6
vertex 73 40.5 6
endloop
endfacet
facet normal 0 0 1
outer loop
vertex 48.058224179844245 -8.5 6
vertex 61.81172867510452 69.5 6
vertex 58.76544883944729 69.5 6
endloop
endfacet
facet normal 0 0 1
outer loop
vertex 48.058224179844245 -8.5 6
vertex 58.76544883944729 69.5 6
vertex 45.011944344187015 -8.5 6
endloop
endfacet
facet normal 0 0 1
outer loop
vertex 88 43.5 6
vertex 88 69.5 6
vertex 85 69.5 6
endloop
endfacet
facet normal 0 0 1
outer loop
vertex 88 43.5 6
vertex 85 69.5 6
vertex 85 43.5 6
endloop
endfacet
facet normal 0 0 1
outer loop
vertex 58.76544883944729 69.5 6
vertex 61.81172867510452 69.5 6
vertex 85 69.5 6
endloop
endfacet
facet normal 0 0 1
outer loop
vertex 58.76544883944729 69.5 6
vertex 85 69.5 6
vertex 88 69.5 6
endloop
endfacet
facet normal 0 0 1
outer loop
vertex 58.76544883944729 69.5 6
vertex 88 69.5 6
vertex 88 72.5 6
endloop
endfacet
facet normal 0 0 1
outer loop
vertex 58.76544883944729 69.5 6
vertex 88 72.5 6
vertex 58 72.5 6
endloop
endfacet
facet normal 0 0 1
outer loop
vertex 58.76544883944729 69.5 6
vertex 58 72.5 6
vertex 58 69.5 6
endloop
endfacet
facet normal 0 1 0
outer loop
vertex 45.011944344187015 -8.5 6
vertex 45.01194434418688 -8.5 5.892857142857142
vertex 35.99999999999999 -8.5 5.892857142857142
endloop
endfacet
facet normal 0 1 0
outer loop
vertex 45.011944344187015 -8.5 6
vertex 35.99999999999999 -8.5 5.892857142857142
vertex 31.5 -8.5 5.892857142857142
endloop
endfacet
facet normal 0 1 0
outer loop
vertex 45.011944344187015 -8.5 6
vertex 31.5 -8.5 5.892857142857142
vertex 31.5 -8.5 6
endloop
endfacet
facet normal 0 1 0
outer loop
vertex 35.99999999999999 -8.5 5.892857142857142
vertex 35.43563156845331 -8.5 5.837271704023628
vertex 31.5 -8.5 5.837271704023628
endloop
endfacet
facet normal 0 1 0
outer loop
vertex 35.99999999999999 -8.5 5.892857142857142
vertex 31.5 -8.5 5.837271704023628
vertex 31.5 -8.5 5.892857142857142
endloop
endfacet
facet normal 0 1 0
outer loop
vertex 45.01194434418688 -8.5 5.892857142857142
vertex 45.01194434418688 -8.5 5.837271704023628
vertex 36.56436843154666 -8.5 5.837271704023628
endloop
endfacet
facet normal 0 1 0
outer loop
vertex 45.01194434418688 -8.5 5.892857142857142
vertex 36.56436843154666 -8.5 5.837271704023628
vertex 35.99999999999999 -8.5 5.892857142857142
endloop
endfacet
facet normal 0 1 0
outer loop
vertex 35.43563156845331 -8.5 5.837271704023628
vertex 34.89295149922956 -8.5 5.672651504764791
vertex 31.5 -8.5 5.672651504764791
endloop
endfacet
facet normal 0 1 0
outer loop
vertex 35.43563156845331 -8.5 5.837271704023628
vertex 31.5 -8.5 5.672651504764791
vertex 31.5 -8.5 5.837271704023628
endloop
endfacet
facet normal 0 1 0
outer loop
vertex 45.01194434418688 -8.5 5.837271704023628
vertex 45.01194434418688 -8.5 5.672651504764791
vertex 37.107048500770446 -8.5 5.672651504764791
endloop
endfacet
facet normal 0 1 0
outer loop
vertex 45.01194434418688 -8.5 5.837271704023628
vertex 37.107048500770446 -8.5 5.672651504764791
vertex 36.56436843154666 -8.5 5.837271704023628
endloop
endfacet
facet normal 0 1 0
outer loop
vertex 34.89295149922956 -8.5 5.672651504764791
vertex 34.39281468305045 -8.5 5.405322807018075
vertex 31.5 -8.5 5.405322807018075
endloop
endfacet
facet normal 0 1 0
outer loop
vertex 34.89295149922956 -8.5 5.672651504764791
vertex 31.5 -8.5 5.405322807018075
vertex 31.5 -8.5 5.672651504764791
endloop
endfacet
facet normal 0 1 0
outer loop
vertex 45.01194434418688 -8.5 5.672651504764791
vertex 45.01194434418688 -8.5 5.405322807018075
vertex 37.60718531694957 -8.5 5.405322807018075
endloop
endfacet
facet normal 0 1 0
outer loop
vertex 45.01194434418688 -8.5 5.672651504764791
vertex 37.60718531694957 -8.5 5.405322807018075
vertex 37.107048500770446 -8.5 5.672651504764791
endloop
endfacet
facet normal 0 1 0
outer loop
vertex 34.39281468305045 -8.5 5.405322807018075
vertex 33.95444109728179 -8.5 5.045558902718239
vertex 31.5 -8.5 5.045558902718239
endloop
endfacet
facet normal 0 1 0
outer loop
vertex 34.39281468305045 -8.5 5.405322807018075
vertex 31.5 -8.5 5.045558902718239
vertex 31.5 -8.5 5.405322807018075
endloop
endfacet
facet normal 0 1 0
outer loop
vertex 45.01194434418688 -8.5 5.405322807018075
vertex 45.01194434418688 -8.5 5.045558902718239
vertex 38.04555890271821 -8.5 5.045558902718239
endloop
endfacet
facet normal 0 1 0
outer loop
vertex 45.01194434418688 -8.5 5.405322807018075
vertex 38.04555890271821 -8.5 5.045558902718239
vertex 37.60718531694957 -8.5 5.405322807018075
endloop
endfacet
facet normal 0 1 0
outer loop
vertex 33.95444109728179 -8.5 5.045558902718239
vertex 33.59467719298192 -8.5 4.607185316949576
vertex 31.5 -8.5 4.607185316949576
endloop
endfacet
facet normal 0 1 0
outer loop
vertex 33.95444109728179 -8.5 5.045558902718239
vertex 31.5 -8.5 4.607185316949576
vertex 31.5 -8.5 5.045558902718239
endloop
endfacet
facet normal 0 1 0
outer loop
vertex 45.01194434418688 -8.5 5.045558902718239
vertex 45.01194434418688 -8.5 4.607185316949576
vertex 38.40532280701807 -8.5 4.607185316949576
endloop
endfacet
facet normal 0 1 0
outer loop
vertex 45.01194434418688 -8.5 5.045558902718239
vertex 38.40532280701807 -8.5 4.607185316949576
vertex 38.04555890271821 -8.5 5.045558902718239
endloop
endfacet
facet normal 0 1 0
outer loop
vertex 33.59467719298192 -8.5 4.607185316949576
vertex 33.3273484952352 -8.5 4.107048500770425
vertex 31.5 -8.5 4.107048500770425
endloop
endfacet
facet normal 0 1 0
outer loop
vertex 33.59467719298192 -8.5 4.607185316949576
vertex 31.5 -8.5 4.107048500770425
vertex 31.5 -8.5 4.607185316949576
endloop
endfacet
facet normal 0 1 0
outer loop
vertex 45.01194434418688 -8.5 4.607185316949576
vertex 45.01194434418688 -8.5 4.107048500770425
vertex 38.6726515047648 -8.5 4.107048500770425
endloop
endfacet
facet normal 0 1 0
outer loop
vertex 45.01194434418688 -8.5 4.607185316949576
vertex 38.6726515047648 -8.5 4.107048500770425
vertex 38.40532280701807 -8.5 4.607185316949576
endloop
endfacet
facet normal 0 1 0
outer loop
vertex 33.3273484952352 -8.5 4.107048500770425
vertex 33.16272829597638 -8.5 3.564368431546706
vertex 31.5 -8.5 3.564368431546706
endloop
endfacet
facet normal 0 1 0
outer loop
vertex 33.3273484952352 -8.5 4.107048500770425
vertex 31.5 -8.5 3.564368431546706
vertex 31.5 -8.5 4.107048500770425
endloop
endfacet
facet normal 0 1 0
outer loop
vertex 45.01194434418688 -8.5 4.107048500770425
vertex 45.01194434418688 -8.5 3.564368431546706
vertex 38.83727170402362 -8.5 3.564368431546706
endloop
endfacet
facet normal 0 1 0
outer loop
vertex 45.01194434418688 -8.5 4.107048500770425
vertex 38.83727170402362 -8.5 3.564368431546706
vertex 38.6726515047648 -8.5 4.107048500770425
endloop
endfacet
facet normal 0 1 0
outer loop
vertex 33.16272829597638 -8.5 3.564368431546706
vertex 33.10714285714286 -8.5 2.9999999999999734
vertex 31.5 -8.5 2.9999999999999734
endloop
endfacet
facet normal 0 1 0
outer loop
vertex 33.16272829597638 -8.5 3.564368431546706
vertex 31.5 -8.5 2.9999999999999734
vertex 31.5 -8.5 3.564368431546706
endloop
endfacet
facet normal 0 1 0
outer loop
vertex 45.01194434418688 -8.5 3.564368431546706
vertex 45.01194434418688 -8.5 2.9999999999999734
vertex 38.89285714285714 -8.5 2.9999999999999734
endloop
endfacet
facet normal 0 1 0
outer loop
vertex 45.01194434418688 -8.5 3.564368431546706
vertex 38.89285714285714 -8.5 2.9999999999999734
vertex 38.83727170402362 -8.5 3.564368431546706
endloop
endfacet
facet normal 0 1 0
outer loop
vertex 33.10714285714286 -8.5 2.9999999999999734
vertex 33.162728295976365 -8.5 2.4356315684533767
vertex 31.5 -8.5 2.4356315684533767
endloop
endfacet
facet normal 0 1 0
outer loop
vertex 33.10714285714286 -8.5 2.9999999999999734
vertex 31.5 -8.5 2.4356315684533767
vertex 31.5 -8.5 2.9999999999999734
endloop
endfacet
facet normal 0 1 0
outer loop
vertex 45.01194434418688 -8.5 2.9999999999999734
vertex 45.01194434418688 -8.5 2.4356315684533767
vertex 38.837271704023614 -8.5 2.4356315684533767
endloop
endfacet
facet normal 0 1 0
outer loop
vertex 45.01194434418688 -8.5 2.9999999999999734
vertex 38.837271704023614 -8.5 2.4356315684533767
vertex 38.89285714285714 -8.5 2.9999999999999734
endloop
endfacet
facet normal 0 1 0
outer loop
vertex 33.162728295976365 -8.5 2.4356315684533767
vertex 33.32734849523521 -8.5 1.8929514992295429
vertex 31.5 -8.5 1.8929514992295429
endloop
endfacet
facet normal 0 1 0
outer loop
vertex 33.162728295976365 -8.5 2.4356315684533767
vertex 31.5 -8.5 1.8929514992295429
vertex 31.5 -8.5 2.4356315684533767
endloop
endfacet
facet normal 0 1 0
outer loop
vertex 45.01194434418688 -8.5 2.4356315684533767
vertex 45.01194434418688 -8.5 1.8929514992295429
vertex 38.672651504764794 -8.5 1.8929514992295429
endloop
endfacet
facet normal 0 1 0
outer loop
vertex 45.01194434418688 -8.5 2.4356315684533767
vertex 38.672651504764794 -8.5 1.8929514992295429
vertex 38.837271704023614 -8.5 2.4356315684533767
endloop
endfacet
facet normal 0 1 0
outer loop
vertex 33.32734849523521 -8.5 1.8929514992295429
vertex 33.594677192981905 -8.5 1.3928146830504595
vertex 31.5 -8.5 1.3928146830504595
endloop
endfacet
facet normal 0 1 0
outer loop
vertex 33.32734849523521 -8.5 1.8929514992295429
vertex 31.5 -8.5 1.3928146830504595
vertex 31.5 -8.5 1.8929514992295429
endloop
endfacet
facet normal 0 1 0
outer loop
vertex 45.01194434418688 -8.5 1.8929514992295429
vertex 45.01194434418688 -8.5 1.3928146830504595
vertex 38.40532280701811 -8.5 1.3928146830504595
endloop
endfacet
facet normal 0 1 0
outer loop
vertex 45.01194434418688 -8.5 1.8929514992295429
vertex 38.40532280701811 -8.5 1.3928146830504595
vertex 38.672651504764794 -8.5 1.8929514992295429
endloop
endfacet
facet normal 0 1 0
outer loop
vertex 33.594677192981905 -8.5 1.3928146830504595
vertex 33.95444109728177 -8.5 0.95444109728178
vertex 31.5 -8.5 0.95444109728178
endloop
endfacet
facet normal 0 1 0
outer loop
vertex 33.594677192981905 -8.5 1.3928146830504595
vertex 31.5 -8.5 0.95444109728178
vertex 31.5 -8.5 1.3928146830504595
endloop
endfacet
facet normal 0 1 0
outer loop
vertex 45.01194434418688 -8.5 1.3928146830504595
vertex 45.01194434418688 -8.5 0.95444109728178
vertex 38.04555890271824 -8.5 0.95444109728178
endloop
endfacet
facet normal 0 1 0
outer loop
vertex 45.01194434418688 -8.5 1.3928146830504595
vertex 38.04555890271824 -8.5 0.95444109728178
vertex 38.40532280701811 -8.5 1.3928146830504595
endloop
endfacet
facet normal 0 1 0
outer loop
vertex 33.95444109728177 -8.5 0.95444109728178
vertex 34.392814683050446 -8.5 0.5946771929819208
vertex 31.5 -8.5 0.5946771929819208
endloop
endfacet
facet normal 0 1 0
outer loop
vertex 33.95444109728177 -8.5 0.95444109728178
vertex 31.5 -8.5 0.5946771929819208
vertex 31.5 -8.5 0.95444109728178
endloop
endfacet
facet normal 0 1 0
outer loop
vertex 45.01194434418688 -8.5 0.95444109728178
vertex 45.01194434418688 -8.5 0.5946771929819208
vertex 37.607185316949575 -8.5 0.5946771929819208
endloop
endfacet
facet normal 0 1 0
outer loop
vertex 45.01194434418688 -8.5 0.95444109728178
vertex 37.607185316949575 -8.5 0.5946771929819208
vertex 38.04555890271824 -8.5 0.95444109728178
endloop
endfacet
facet normal 0 1 0
outer loop
vertex 34.392814683050446 -8.5 0.5946771929819208
vertex 34.89295149922957 -8.5 0.327348495235206
vertex 31.5 -8.5 0.327348495235206
endloop
endfacet
facet normal 0 1 0
outer loop
vertex 34.392814683050446 -8.5 0.5946771929819208
vertex 31.5 -8.5 0.327348495235206
vertex 31.5 -8.5 0.5946771929819208
endloop
endfacet
facet normal 0 1 0
outer loop
vertex 45.01194434418688 -8.5 0.5946771929819208
vertex 45.01194434418688 -8.5 0.327348495235206
vertex 37.107048500770425 -8.5 0.327348495235206
endloop
endfacet
facet normal 0 1 0
outer loop
vertex 45.01194434418688 -8.5 0.5946771929819208
vertex 37.107048500770425 -8.5 0.327348495235206
vertex 37.607185316949575 -8.5 0.5946771929819208
endloop
endfacet
facet normal 0 1 0
outer loop
vertex 34.89295149922957 -8.5 0.327348495235206
vertex 35.43563156845334 -8.5 0.16272829597637117
vertex 31.5 -8.5 0.16272829597637117
endloop
endfacet
facet normal 0 1 0
outer loop
vertex 34.89295149922957 -8.5 0.327348495235206
vertex 31.5 -8.5 0.16272829597637117
vertex 31.5 -8.5 0.327348495235206
endloop
endfacet
facet normal 0 1 0
outer loop
vertex 45.01194434418688 -8.5 0.327348495235206
vertex 45.01194434418688 -8.5 0.16272829597637117
vertex 36.564368431546654 -8.5 0.16272829597637117
endloop
endfacet
facet normal 0 1 0
outer loop
vertex 45.01194434418688 -8.5 0.327348495235206
vertex 36.564368431546654 -8.5 0.16272829597637117
vertex 37.107048500770425 -8.5 0.327348495235206
endloop
endfacet
facet normal 0 1 0
outer loop
vertex 35.43563156845334 -8.5 0.16272829597637117
vertex 36.00000000000001 -8.5 0.10714285714285772
vertex 31.5 -8.5 0.10714285714285772
endloop
endfacet
facet normal 0 1 0
outer loop
vertex 35.43563156845334 -8.5 0.16272829597637117
vertex 31.5 -8.5 0.10714285714285772
vertex 31.5 -8.5 0.16272829597637117
endloop
endfacet
facet normal 0 1 0
outer loop
vertex 45.01194434418688 -8.5 0.16272829597637117
vertex 45.01194434418688 -8.5 0.10714285714285772
vertex 36.00000000000001 -8.5 0.10714285714285772
endloop
endfacet
facet normal 0 1 0
outer loop
vertex 45.01194434418688 -8.5 0.16272829597637117
vertex 36.00000000000001 -8.5 0.10714285714285772
vertex 36.564368431546654 -8.5 0.16272829597637117
endloop
endfacet
facet normal 0 1 0
outer loop
vertex 36.00000000000001 -8.5 0.10714285714285772
vertex 45.01194434418688 -8.5 0.10714285714285772
vertex 45.011944344187015 -8.5 0
endloop
endfacet
facet normal 0 1 0
outer loop
vertex 36.00000000000001 -8.5 0.10714285714285772
vertex 45.011944344187015 -8.5 0
vertex 31.5 -8.5 0
endloop
endfacet
facet normal 0 1 0
outer loop
vertex 36.00000000000001 -8.5 0.10714285714285772
vertex 31.5 -8.5 0
vertex 31.5 -8.5 0.10714285714285772
endloop
endfacet
facet normal 0 1 0
outer loop
vertex 48.5 -8.5 6
vertex 48.5 -8.5 0
vertex 48.058224179844245 -8.5 0
endloop
endfacet
facet normal 0 1 0
outer loop
vertex 48.5 -8.5 6
vertex 48.058224179844245 -8.5 0
vertex 48.058224179844245 -8.5 6
endloop
endfacet
facet normal 0 1 0
outer loop
vertex 36.29263548302419 -2 4.4711779206048465
vertex 36.57402514854763 -2 4.385819298766931
vertex 36.833355349529405 -2 4.247204418453818
endloop
endfacet
facet normal 0 1 0
outer loop
vertex 36.29263548302419 -2 4.4711779206048465
vertex 36.833355349529405 -2 4.247204418453818
vertex 37.06066017177982 -2 4.060660171779822
endloop
endfacet
facet normal 0 1 0
outer loop
vertex 36.29263548302419 -2 4.4711779206048465
vertex 37.06066017177982 -2 4.060660171779822
vertex 37.24720441845382 -2 3.8333553495294037
endloop
endfacet
facet normal 0 1 0
outer loop
vertex 36.29263548302419 -2 4.4711779206048465
vertex 37.24720441845382 -2 3.8333553495294037
vertex 37.38581929876693 -2 3.5740251485476353
endloop
endfacet
facet normal 0 1 0
outer loop
vertex 36.29263548302419 -2 4.4711779206048465
vertex 37.38581929876693 -2 3.5740251485476353
vertex 37.471177920604845 -2 3.292635483024193
endloop
endfacet
facet normal 0 1 0
outer loop
vertex 36.29263548302419 -2 4.4711779206048465
vertex 37.471177920604845 -2 3.292635483024193
vertex 37.5 -2 3.0000000000000004
endloop
endfacet
facet normal 0 1 0
outer loop
vertex 36.29263548302419 -2 4.4711779206048465
vertex 37.5 -2 3.0000000000000004
vertex 37.471177920604845 -2 2.707364516975807
endloop
endfacet
facet normal 0 1 0
outer loop
vertex 36.29263548302419 -2 4.4711779206048465
vertex 37.471177920604845 -2 2.707364516975807
vertex 37.38581929876693 -2 2.4259748514523665
endloop
endfacet
facet normal 0 1 0
outer loop
vertex 36.29263548302419 -2 4.4711779206048465
vertex 37.38581929876693 -2 2.4259748514523665
vertex 37.24720441845382 -2 2.166644650470598
endloop
endfacet
facet normal 0 1 0
outer loop
vertex 36.29263548302419 -2 4.4711779206048465
vertex 37.24720441845382 -2 2.166644650470598
vertex 37.06066017177982 -2 1.9393398282201793
endloop
endfacet
facet normal 0 1 0
outer loop
vertex 36.29263548302419 -2 4.4711779206048465
vertex 37.06066017177982 -2 1.9393398282201793
vertex 36.833355349529405 -2 1.7527955815461826
endloop
endfacet
facet normal 0 1 0
outer loop
vertex 36.29263548302419 -2 4.4711779206048465
vertex 36.833355349529405 -2 1.7527955815461826
vertex 36.57402514854763 -2 1.6141807012330707
endloop
endfacet
facet normal 0 1 0
outer loop
vertex 36.29263548302419 -2 4.4711779206048465
vertex 36.57402514854763 -2 1.6141807012330707
vertex 36.29263548302419 -2 1.528822079395155
endloop
endfacet
facet normal 0 1 0
outer loop
vertex 36.29263548302419 -2 4.4711779206048465
vertex 36.29263548302419 -2 1.528822079395155
vertex 36 -2 1.5000000000000004
endloop
endfacet
facet normal 0 1 0
outer loop
vertex 36.29263548302419 -2 4.4711779206048465
vertex 36 -2 1.5000000000000004
vertex 35.70736451697581 -2 1.528822079395155
endloop
endfacet
facet normal 0 1 0
outer loop
vertex 36.29263548302419 -2 4.4711779206048465
vertex 35.70736451697581 -2 1.528822079395155
vertex 35.42597485145237 -2 1.6141807012330707
endloop
endfacet
facet normal 0 1 0
outer loop
vertex 36.29263548302419 -2 4.4711779206048465
vertex 35.42597485145237 -2 1.6141807012330707
vertex 35.166644650470595 -2 1.7527955815461826
endloop
endfacet
facet normal 0 1 0
outer loop
vertex 36.29263548302419 -2 4.4711779206048465
vertex 35.166644650470595 -2 1.7527955815461826
vertex 34.93933982822018 -2 1.9393398282201793
endloop
endfacet
facet normal 0 1 0
outer loop
vertex 36.29263548302419 -2 4.4711779206048465
vertex 34.93933982822018 -2 1.9393398282201793
vertex 34.75279558154618 -2 2.166644650470598
endloop
endfacet
facet normal 0 1 0
outer loop
vertex 36.29263548302419 -2 4.4711779206048465
vertex 34.75279558154618 -2 2.166644650470598
vertex 34.61418070123307 -2 2.4259748514523665
endloop
endfacet
facet normal 0 1 0
outer loop
vertex 36.29263548302419 -2 4.4711779206048465
vertex 34.61418070123307 -2 2.4259748514523665
vertex 34.528822079395155 -2 2.707364516975807
endloop
endfacet
facet normal 0 1 0
outer loop
vertex 36.29263548302419 -2 4.4711779206048465
vertex 34.528822079395155 -2 2.707364516975807
vertex 34.5 -2 3.0000000000000004
endloop
endfacet
facet normal 0 1 0
outer loop
vertex 36.29263548302419 -2 4.4711779206048465
vertex 34.5 -2 3.0000000000000004
vertex 34.528822079395155 -2 3.292635483024193
endloop
endfacet
facet normal 0 1 0
outer loop
vertex 36.29263548302419 -2 4.4711779206048465
vertex 34.528822079395155 -2 3.292635483024193
vertex 34.61418070123307 -2 3.5740251485476353
endloop
endfacet
facet normal 0 1 0
outer loop
vertex 36.29263548302419 -2 4.4711779206048465
vertex 34.61418070123307 -2 3.5740251485476353
vertex 34.75279558154618 -2 3.8333553495294037
endloop
endfacet
facet normal 0 1 0
outer loop
vertex 36.29263548302419 -2 4.4711779206048465
vertex 34.75279558154618 -2 3.8333553495294037
vertex 34.93933982822018 -2 4.060660171779822
endloop
endfacet
facet normal 0 1 0
outer loop
vertex 36.29263548302419 -2 4.4711779206048465
vertex 34.93933982822018 -2 4.060660171779822
vertex 35.166644650470595 -2 4.247204418453818
endloop
endfacet
facet normal 0 1 0
outer loop
vertex 36.29263548302419 -2 4.4711779206048465
vertex 35.166644650470595 -2 4.247204418453818
vertex 35.42597485145237 -2 4.385819298766931
endloop
endfacet
facet normal 0 1 0
outer loop
vertex 36.29263548302419 -2 4.4711779206048465
vertex 35.42597485145237 -2 4.385819298766931
vertex 35.70736451697581 -2 4.4711779206048465
endloop
endfacet
facet normal 0 1 0
outer loop
vertex 36.29263548302419 -2 4.4711779206048465
vertex 35.70736451697581 -2 4.4711779206048465
vertex 36 -2 4.5
endloop
endfacet
facet normal 0.9732993121104732 0.2085641383093843 0.09586161513632005
outer loop
vertex 38.83727170402362 -8.5 3.564368431546706
vertex 38.89285714285714 -8.5 2.9999999999999734
vertex 37.5 -2 3.0000000000000004
endloop
endfacet
facet normal 0.9732993121104732 0.2085641383093843 0.09586161513632005
outer loop
vertex 38.83727170402362 -8.5 3.564368431546706
vertex 37.5 -2 3.0000000000000004
vertex 37.471177920604845 -2 3.292635483024193
endloop
endfacet
facet normal 0.9358959653786094 0.20856413830938533 0.2839009372990944
outer loop
vertex 37.471177920604845 -2 3.292635483024193
vertex 37.38581929876693 -2 3.5740251485476353
vertex 38.6726515047648 -8.5 4.107048500770425
endloop
endfacet
facet normal 0.9358959653786094 0.20856413830938533 0.2839009372990944
outer loop
vertex 37.471177920604845 -2 3.292635483024193
vertex 38.6726515047648 -8.5 4.107048500770425
vertex 38.83727170402362 -8.5 3.564368431546706
endloop
endfacet
facet normal 0.8625266615537497 0.20856413830938733 0.4610301056549409
outer loop
vertex 37.38581929876693 -2 3.5740251485476353
vertex 37.24720441845382 -2 3.8333553495294037
vertex 38.40532280701807 -8.5 4.607185316949576
endloop
endfacet
facet normal 0.8625266615537497 0.20856413830938733 0.4610301056549409
outer loop
vertex 37.38581929876693 -2 3.5740251485476353
vertex 38.40532280701807 -8.5 4.607185316949576
vertex 38.6726515047648 -8.5 4.107048500770425
endloop
endfacet
facet normal 0.7560109418359054 0.20856413830939194 0.6204421455991268
outer loop
vertex 37.24720441845382 -2 3.8333553495294037
vertex 37.06066017177982 -2 4.060660171779822
vertex 38.04555890271821 -8.5 5.045558902718239
endloop
endfacet
facet normal 0.7560109418359054 0.20856413830939194 0.6204421455991268
outer loop
vertex 37.24720441845382 -2 3.8333553495294037
vertex 38.04555890271821 -8.5 5.045558902718239
vertex 38.40532280701807 -8.5 4.607185316949576
endloop
endfacet
facet normal 0.6204421455991254 0.20856413830938667 0.7560109418359081
outer loop
vertex 37.06066017177982 -2 4.060660171779822
vertex 36.833355349529405 -2 4.247204418453818
vertex 37.60718531694957 -8.5 5.405322807018075
endloop
endfacet
facet normal 0.6204421455991254 0.20856413830938667 0.7560109418359081
outer loop
vertex 37.06066017177982 -2 4.060660171779822
vertex 37.60718531694957 -8.5 5.405322807018075
vertex 38.04555890271821 -8.5 5.045558902718239
endloop
endfacet
facet normal 0.46103010565493824 0.2085641383093866 0.8625266615537514
outer loop
vertex 36.833355349529405 -2 4.247204418453818
vertex 36.57402514854763 -2 4.385819298766931
vertex 37.107048500770446 -8.5 5.672651504764791
endloop
endfacet
facet normal 0.46103010565493824 0.2085641383093866 0.8625266615537514
outer loop
vertex 36.833355349529405 -2 4.247204418453818
vertex 37.107048500770446 -8.5 5.672651504764791
vertex 37.60718531694957 -8.5 5.405322807018075
endloop
endfacet
facet normal 0.2839009372990926 0.20856413830938708 0.9358959653786095
outer loop
vertex 36.57402514854763 -2 4.385819298766931
vertex 36.29263548302419 -2 4.4711779206048465
vertex 36.56436843154666 -8.5 5.837271704023628
endloop
endfacet
facet normal 0.2839009372990926 0.20856413830938708 0.9358959653786095
outer loop
vertex 36.57402514854763 -2 4.385819298766931
vertex 36.56436843154666 -8.5 5.837271704023628
vertex 37.107048500770446 -8.5 5.672651504764791
endloop
endfacet
facet normal 0.09586161513632374 0.2085641383093863 0.9732993121104723
outer loop
vertex 36.56436843154666 -8.5 5.837271704023628
vertex 36.29263548302419 -2 4.4711779206048465
vertex 36 -2 4.5
endloop
endfacet
facet normal 0.09586161513632374 0.2085641383093863 0.9732993121104723
outer loop
vertex 36.56436843154666 -8.5 5.837271704023628
vertex 36 -2 4.5
vertex 35.99999999999999 -8.5 5.892857142857142
endloop
endfacet
facet normal -0.09586161513632221 0.20856413830938614 0.9732993121104725
outer loop
vertex 36 -2 4.5
vertex 35.70736451697581 -2 4.4711779206048465
vertex 35.43563156845331 -8.5 5.837271704023628
endloop
endfacet
facet normal -0.09586161513632221 0.20856413830938614 0.9732993121104725
outer loop
vertex 36 -2 4.5
vertex 35.43563156845331 -8.5 5.837271704023628
vertex 35.99999999999999 -8.5 5.892857142857142
endloop
endfacet
facet normal -0.2839009372990926 0.20856413830938694 0.9358959653786096
outer loop
vertex 35.70736451697581 -2 4.4711779206048465
vertex 35.42597485145237 -2 4.385819298766931
vertex 34.89295149922956 -8.5 5.672651504764791
endloop
endfacet
facet normal -0.2839009372990926 0.20856413830938694 0.9358959653786096
outer loop
vertex 35.70736451697581 -2 4.4711779206048465
vertex 34.89295149922956 -8.5 5.672651504764791
vertex 35.43563156845331 -8.5 5.837271704023628
endloop
endfacet
facet normal -0.46103010565493807 0.20856413830938844 0.8625266615537511
outer loop
vertex 35.42597485145237 -2 4.385819298766931
vertex 35.166644650470595 -2 4.247204418453818
vertex 34.39281468305045 -8.5 5.405322807018075
endloop
endfacet
facet normal -0.46103010565493807 0.20856413830938844 0.8625266615537511
outer loop
vertex 35.42597485145237 -2 4.385819298766931
vertex 34.39281468305045 -8.5 5.405322807018075
vertex 34.89295149922956 -8.5 5.672651504764791
endloop
endfacet
facet normal -0.6204421455991256 0.20856413830938703 0.7560109418359078
outer loop
vertex 35.166644650470595 -2 4.247204418453818
vertex 34.93933982822018 -2 4.060660171779822
vertex 33.95444109728179 -8.5 5.045558902718239
endloop
endfacet
facet normal -0.6204421455991256 0.20856413830938703 0.7560109418359078
outer loop
vertex 35.166644650470595 -2 4.247204418453818
vertex 33.95444109728179 -8.5 5.045558902718239
vertex 34.39281468305045 -8.5 5.405322807018075
endloop
endfacet
facet normal -0.7560109418359049 0.20856413830939086 0.6204421455991279
outer loop
vertex 34.93933982822018 -2 4.060660171779822
vertex 34.75279558154618 -2 3.8333553495294037
vertex 33.59467719298192 -8.5 4.607185316949576
endloop
endfacet
facet normal -0.7560109418359049 0.20856413830939086 0.6204421455991279
outer loop
vertex 34.93933982822018 -2 4.060660171779822
vertex 33.59467719298192 -8.5 4.607185316949576
vertex 33.95444109728179 -8.5 5.045558902718239
endloop
endfacet
facet normal -0.8625266615537532 0.20856413830938614 0.4610301056549348
outer loop
vertex 34.75279558154618 -2 3.8333553495294037
vertex 34.61418070123307 -2 3.5740251485476353
vertex 33.3273484952352 -8.5 4.107048500770425
endloop
endfacet
facet normal -0.8625266615537532 0.20856413830938614 0.4610301056549348
outer loop
vertex 34.75279558154618 -2 3.8333553495294037
vertex 33.3273484952352 -8.5 4.107048500770425
vertex 33.59467719298192 -8.5 4.607185316949576
endloop
endfacet
facet normal -0.9358959653786094 0.20856413830938572 0.2839009372990944
outer loop
vertex 34.61418070123307 -2 3.5740251485476353
vertex 34.528822079395155 -2 3.292635483024193
vertex 33.16272829597638 -8.5 3.564368431546706
endloop
endfacet
facet normal -0.9358959653786094 0.20856413830938572 0.2839009372990944
outer loop
vertex 34.61418070123307 -2 3.5740251485476353
vertex 33.16272829597638 -8.5 3.564368431546706
vertex 33.3273484952352 -8.5 4.107048500770425
endloop
endfacet
facet normal -0.9732993121104723 0.2085641383093845 0.09586161513632763
outer loop
vertex 33.16272829597638 -8.5 3.564368431546706
vertex 34.528822079395155 -2 3.292635483024193
vertex 34.5 -2 3.0000000000000004
endloop
endfacet
facet normal -0.9732993121104723 0.2085641383093845 0.09586161513632763
outer loop
vertex 33.16272829597638 -8.5 3.564368431546706
vertex 34.5 -2 3.0000000000000004
vertex 33.10714285714286 -8.5 2.9999999999999734
endloop
endfacet
facet normal -0.973299312110473 0.20856413830938428 -0.09586161513632022
outer loop
vertex 34.5 -2 3.0000000000000004
vertex 34.528822079395155 -2 2.707364516975807
vertex 33.162728295976365 -8.5 2.4356315684533767
endloop
endfacet
facet normal -0.973299312110473 0.20856413830938428 -0.09586161513632022
outer loop
vertex 34.5 -2 3.0000000000000004
vertex 33.162728295976365 -8.5 2.4356315684533767
vertex 33.10714285714286 -8.5 2.9999999999999734
endloop
endfacet
facet normal -0.93589596537861 0.20856413830939236 -0.2839009372990874
outer loop
vertex 34.528822079395155 -2 2.707364516975807
vertex 34.61418070123307 -2 2.4259748514523665
vertex 33.32734849523521 -8.5 1.8929514992295429
endloop
endfacet
facet normal -0.93589596537861 0.20856413830939236 -0.2839009372990874
outer loop
vertex 34.528822079395155 -2 2.707364516975807
vertex 33.32734849523521 -8.5 1.8929514992295429
vertex 33.162728295976365 -8.5 2.4356315684533767
endloop
endfacet
facet normal -0.8625266615537495 0.2085641383093869 -0.46103010565494174
outer loop
vertex 34.61418070123307 -2 2.4259748514523665
vertex 34.75279558154618 -2 2.166644650470598
vertex 33.594677192981905 -8.5 1.3928146830504595
endloop
endfacet
facet normal -0.8625266615537495 0.2085641383093869 -0.46103010565494174
outer loop
vertex 34.61418070123307 -2 2.4259748514523665
vertex 33.594677192981905 -8.5 1.3928146830504595
vertex 33.32734849523521 -8.5 1.8929514992295429
endloop
endfacet
facet normal -0.7560109418359051 0.20856413830938925 -0.6204421455991281
outer loop
vertex 34.75279558154618 -2 2.166644650470598
vertex 34.93933982822018 -2 1.9393398282201793
vertex 33.95444109728177 -8.5 0.95444109728178
endloop
endfacet
facet normal -0.7560109418359051 0.20856413830938925 -0.6204421455991281
outer loop
vertex 34.75279558154618 -2 2.166644650470598
vertex 33.95444109728177 -8.5 0.95444109728178
vertex 33.594677192981905 -8.5 1.3928146830504595
endloop
endfacet
facet normal -0.6204421455991284 0.20856413830938667 -0.7560109418359054
outer loop
vertex 34.93933982822018 -2 1.9393398282201793
vertex 35.166644650470595 -2 1.7527955815461826
vertex 34.392814683050446 -8.5 0.5946771929819208
endloop
endfacet
facet normal -0.6204421455991284 0.20856413830938667 -0.7560109418359054
outer loop
vertex 34.93933982822018 -2 1.9393398282201793
vertex 34.392814683050446 -8.5 0.5946771929819208
vertex 33.95444109728177 -8.5 0.95444109728178
endloop
endfacet
facet normal -0.46103010565493985 0.20856413830938456 -0.862526661553751
outer loop
vertex 35.166644650470595 -2 1.7527955815461826
vertex 35.42597485145237 -2 1.6141807012330707
vertex 34.89295149922957 -8.5 0.327348495235206
endloop
endfacet
facet normal -0.46103010565493985 0.20856413830938456 -0.862526661553751
outer loop
vertex 35.166644650470595 -2 1.7527955815461826
vertex 34.89295149922957 -8.5 0.327348495235206
vertex 34.392814683050446 -8.5 0.5946771929819208
endloop
endfacet
facet normal -0.2839009372990925 0.20856413830938697 -0.9358959653786095
outer loop
vertex 35.42597485145237 -2 1.6141807012330707
vertex 35.70736451697581 -2 1.528822079395155
vertex 35.43563156845334 -8.5 0.16272829597637117
endloop
endfacet
facet normal -0.2839009372990925 0.20856413830938697 -0.9358959653786095
outer loop
vertex 35.42597485145237 -2 1.6141807012330707
vertex 35.43563156845334 -8.5 0.16272829597637117
vertex 34.89295149922957 -8.5 0.327348495235206
endloop
endfacet
facet normal -0.09586161513632288 0.20856413830938714 -0.9732993121104722
outer loop
vertex 36 -2 1.5000000000000004
vertex 36.00000000000001 -8.5 0.10714285714285772
vertex 35.43563156845334 -8.5 0.16272829597637117
endloop
endfacet
facet normal -0.09586161513632288 0.20856413830938714 -0.9732993121104722
outer loop
vertex 36 -2 1.5000000000000004
vertex 35.43563156845334 -8.5 0.16272829597637117
vertex 35.70736451697581 -2 1.528822079395155
endloop
endfacet
facet normal 0.09586161513632305 0.20856413830938714 -0.9732993121104722
outer loop
vertex 36.564368431546654 -8.5 0.16272829597637117
vertex 36.00000000000001 -8.5 0.10714285714285772
vertex 36 -2 1.5000000000000004
endloop
endfacet
facet normal 0.09586161513632305 0.20856413830938714 -0.9732993121104722
outer loop
vertex 36.564368431546654 -8.5 0.16272829597637117
vertex 36 -2 1.5000000000000004
vertex 36.29263548302419 -2 1.528822079395155
endloop
endfacet
facet normal 0.2839009372990944 0.20856413830938722 -0.935895965378609
outer loop
vertex 36.29263548302419 -2 1.528822079395155
vertex 36.57402514854763 -2 1.6141807012330707
vertex 37.107048500770425 -8.5 0.327348495235206
endloop
endfacet
facet normal 0.2839009372990944 0.20856413830938722 -0.935895965378609
outer loop
vertex 36.29263548302419 -2 1.528822079395155
vertex 37.107048500770425 -8.5 0.327348495235206
vertex 36.564368431546654 -8.5 0.16272829597637117
endloop
endfacet
facet normal 0.4610301056549384 0.20856413830938825 -0.8625266615537509
outer loop
vertex 36.57402514854763 -2 1.6141807012330707
vertex 36.833355349529405 -2 1.7527955815461826
vertex 37.607185316949575 -8.5 0.5946771929819208
endloop
endfacet
facet normal 0.4610301056549384 0.20856413830938825 -0.8625266615537509
outer loop
vertex 36.57402514854763 -2 1.6141807012330707
vertex 37.607185316949575 -8.5 0.5946771929819208
vertex 37.107048500770425 -8.5 0.327348495235206
endloop
endfacet
facet normal 0.6204421455991284 0.20856413830938667 -0.7560109418359054
outer loop
vertex 36.833355349529405 -2 1.7527955815461826
vertex 37.06066017177982 -2 1.9393398282201793
vertex 38.04555890271824 -8.5 0.95444109728178
endloop
endfacet
facet normal 0.6204421455991284 0.20856413830938667 -0.7560109418359054
outer loop
vertex 36.833355349529405 -2 1.7527955815461826
vertex 38.04555890271824 -8.5 0.95444109728178
vertex 37.607185316949575 -8.5 0.5946771929819208
endloop
endfacet
facet normal 0.7560109418359059 0.20856413830938925 -0.6204421455991271
outer loop
vertex 37.06066017177982 -2 1.9393398282201793
vertex 37.24720441845382 -2 2.166644650470598
vertex 38.40532280701811 -8.5 1.3928146830504595
endloop
endfacet
facet normal 0.7560109418359059 0.20856413830938925 -0.6204421455991271
outer loop
vertex 37.06066017177982 -2 1.9393398282201793
vertex 38.40532280701811 -8.5 1.3928146830504595
vertex 38.04555890271824 -8.5 0.95444109728178
endloop
endfacet
facet normal 0.8625266615537532 0.2085641383093865 -0.46103010565493474
outer loop
vertex 37.24720441845382 -2 2.166644650470598
vertex 37.38581929876693 -2 2.4259748514523665
vertex 38.672651504764794 -8.5 1.8929514992295429
endloop
endfacet
facet normal 0.8625266615537532 0.2085641383093865 -0.46103010565493474
outer loop
vertex 37.24720441845382 -2 2.166644650470598
vertex 38.672651504764794 -8.5 1.8929514992295429
vertex 38.40532280701811 -8.5 1.3928146830504595
endloop
endfacet
facet normal 0.9358959653786094 0.20856413830938514 -0.2839009372990944
outer loop
vertex 37.38581929876693 -2 2.4259748514523665
vertex 37.471177920604845 -2 2.707364516975807
vertex 38.837271704023614 -8.5 2.4356315684533767
endloop
endfacet
facet normal 0.9358959653786094 0.20856413830938514 -0.2839009372990944
outer loop
vertex 37.38581929876693 -2 2.4259748514523665
vertex 38.837271704023614 -8.5 2.4356315684533767
vertex 38.672651504764794 -8.5 1.8929514992295429
endloop
endfacet
facet normal 0.9732993121104724 0.20856413830938433 -0.09586161513632742
outer loop
vertex 37.5 -2 3.0000000000000004
vertex 38.89285714285714 -8.5 2.9999999999999734
vertex 38.837271704023614 -8.5 2.4356315684533767
endloop
endfacet
facet normal 0.9732993121104724 0.20856413830938433 -0.09586161513632742
outer loop
vertex 37.5 -2 3.0000000000000004
vertex 38.837271704023614 -8.5 2.4356315684533767
vertex 37.471177920604845 -2 2.707364516975807
endloop
endfacet
facet normal 0.9848077530122075 -0.17364817766693397 0
outer loop
vertex 61.81172867510452 69.5 6
vertex 48.058224179844245 -8.5 6
vertex 48.058224179844245 -8.5 0
endloop
endfacet
facet normal 0.9848077530122075 -0.17364817766693397 0
outer loop
vertex 61.81172867510452 69.5 6
vertex 48.058224179844245 -8.5 0
vertex 61.81172867510452 69.5 0
endloop
endfacet
facet normal 0 1 0
outer loop
vertex 45.01194434418688 -8.5 0.10714285714285772
vertex 45.01194434418688 -8.5 0.16272829597637117
vertex 45.01194434418688 -8.5 0.327348495235206
endloop
endfacet
facet normal 0 1 0
outer loop
vertex 45.01194434418688 -8.5 0.10714285714285772
vertex 45.01194434418688 -8.5 0.327348495235206
vertex 45.01194434418688 -8.5 0.5946771929819208
endloop
endfacet
facet normal 0 1 0
outer loop
vertex 45.01194434418688 -8.5 0.10714285714285772
vertex 45.01194434418688 -8.5 0.5946771929819208
vertex 45.01194434418688 -8.5 0.95444109728178
endloop
endfacet
facet normal 0 1 0
outer loop
vertex 45.01194434418688 -8.5 0.10714285714285772
vertex 45.01194434418688 -8.5 0.95444109728178
vertex 45.01194434418688 -8.5 1.3928146830504595
endloop
endfacet
facet normal 0 1 0
outer loop
vertex 45.01194434418688 -8.5 0.10714285714285772
vertex 45.01194434418688 -8.5 1.3928146830504595
vertex 45.01194434418688 -8.5 1.8929514992295429
endloop
endfacet
facet normal 0 1 0
outer loop
vertex 45.01194434418688 -8.5 0.10714285714285772
vertex 45.01194434418688 -8.5 1.8929514992295429
vertex 45.01194434418688 -8.5 2.4356315684533767
endloop
endfacet
facet normal 0 1 0
outer loop
vertex 45.01194434418688 -8.5 0.10714285714285772
vertex 45.01194434418688 -8.5 2.4356315684533767
vertex 45.01194434418688 -8.5 2.9999999999999734
endloop
endfacet
facet normal 0 1 0
outer loop
vertex 45.01194434418688 -8.5 0.10714285714285772
vertex 45.01194434418688 -8.5 2.9999999999999734
vertex 45.01194434418688 -8.5 3.564368431546706
endloop
endfacet
facet normal 0 1 0
outer loop
vertex 45.01194434418688 -8.5 0.10714285714285772
vertex 45.01194434418688 -8.5 3.564368431546706
vertex 45.01194434418688 -8.5 4.107048500770425
endloop
endfacet
facet normal 0 1 0
outer loop
vertex 45.01194434418688 -8.5 0.10714285714285772
vertex 45.01194434418688 -8.5 4.107048500770425
vertex 45.01194434418688 -8.5 4.607185316949576
endloop
endfacet
facet normal 0 1 0
outer loop
vertex 45.01194434418688 -8.5 0.10714285714285772
vertex 45.01194434418688 -8.5 4.607185316949576
vertex 45.01194434418688 -8.5 5.045558902718239
endloop
endfacet
facet normal 0 1 0
outer loop
vertex 45.01194434418688 -8.5 0.10714285714285772
vertex 45.01194434418688 -8.5 5.045558902718239
vertex 45.01194434418688 -8.5 5.405322807018075
endloop
endfacet
facet normal 0 1 0
outer loop
vertex 45.01194434418688 -8.5 0.10714285714285772
vertex 45.01194434418688 -8.5 5.405322807018075
vertex 45.01194434418688 -8.5 5.672651504764791
endloop
endfacet
facet normal 0 1 0
outer loop
vertex 45.01194434418688 -8.5 0.10714285714285772
vertex 45.01194434418688 -8.5 5.672651504764791
vertex 45.01194434418688 -8.5 5.837271704023628
endloop
endfacet
facet normal 0 1 0
outer loop
vertex 45.01194434418688 -8.5 0.10714285714285772
vertex 45.01194434418688 -8.5 5.837271704023628
vertex 45.01194434418688 -8.5 5.892857142857142
endloop
endfacet
facet normal 0 1 0
outer loop
vertex 45.01194434418688 -8.5 0.10714285714285772
vertex 45.01194434418688 -8.5 5.892857142857142
vertex 45.011944344187015 -8.5 6
endloop
endfacet
facet normal 0 1 0
outer loop
vertex 45.01194434418688 -8.5 0.10714285714285772
vertex 45.011944344187015 -8.5 6
vertex 58.76544883944729 69.5 6
endloop
endfacet
facet normal 0 1 0
outer loop
vertex 45.01194434418688 -8.5 0.10714285714285772
vertex 58.76544883944729 69.5 6
vertex 58.76544883944729 69.5 0
endloop
endfacet
facet normal 0 1 0
outer loop
vertex 45.01194434418688 -8.5 0.10714285714285772
vertex 58.76544883944729 69.5 0
vertex 45.011944344187015 -8.5 0
endloop
endfacet
facet normal -1 0 0
outer loop
vertex 58 69.5 0
vertex 58 69.5 6
vertex 58 72.5 6
endloop
endfacet
facet normal -1 0 0
outer loop
vertex 58 69.5 0
vertex 58 72.5 6
vertex 58 72.5 0
endloop
endfacet
facet normal 1 0 0
outer loop
vertex 88 43.5 0
vertex 88 69.5 0
vertex 88 72.5 0
endloop
endfacet
facet normal 1 0 0
outer loop
vertex 88 43.5 0
vertex 88 72.5 0
vertex 88 72.5 6
endloop
endfacet
facet normal 1 0 0
outer loop
vertex 88 43.5 0
vertex 88 72.5 6
vertex 88 69.5 6
endloop
endfacet
facet normal 1 0 0
outer loop
vertex 88 43.5 0
vertex 88 69.5 6
vertex 88 43.5 6
endloop
endfacet
facet normal 1 0 0
outer loop
vertex 88 43.5 0
vertex 88 43.5 6
vertex 88 40.5 6
endloop
endfacet
facet normal 1 0 0
outer loop
vertex 88 43.5 0
vertex 88 40.5 6
vertex 88 40.5 0
endloop
endfacet
facet normal 0 1 0
outer loop
vertex 58 72.5 0
vertex 58 72.5 6
vertex 88 72.5 6
endloop
endfacet
facet normal 0 1 0
outer loop
vertex 58 72.5 0
vertex 88 72.5 6
vertex 88 72.5 0
endloop
endfacet
facet normal -1 0 0
outer loop
vertex 73 40.5 0
vertex 73 40.5 6
vertex 73 43.5 6
endloop
endfacet
facet normal -1 0 0
outer loop
vertex 73 40.5 0
vertex 73 43.5 6
vertex 73 43.5 0
endloop
endfacet
facet normal 0 -1 0
outer loop
vertex 73 40.5 0
vertex 88 40.5 0
vertex 88 40.5 6
endloop
endfacet
facet normal 0 -1 0
outer loop
vertex 73 40.5 0
vertex 88 40.5 6
vertex 73 40.5 6
endloop
endfacet
facet normal 0 1 0
outer loop
vertex 73 43.5 0
vertex 73 43.5 6
vertex 85 43.5 6
endloop
endfacet
facet normal 0 1 0
outer loop
vertex 73 43.5 0
vertex 85 43.5 6
vertex 85 43.5 0
endloop
endfacet
facet normal -1 0 0
outer loop
vertex 85 43.5 0
vertex 85 43.5 6
vertex 85 69.5 6
endloop
endfacet
facet normal -1 0 0
outer loop
vertex 85 43.5 0
vertex 85 69.5 6
vertex 85 69.5 0
endloop
endfacet
facet normal 0 -1 0
outer loop
vertex 58.76544883944729 69.5 0
vertex 58.76544883944729 69.5 6
vertex 58 69.5 6
endloop
endfacet
facet normal 0 -1 0
outer loop
vertex 58.76544883944729 69.5 0
vertex 58 69.5 6
vertex 58 69.5 0
endloop
endfacet
facet normal 0 -1 0
outer loop
vertex 85 69.5 0
vertex 85 69.5 6
vertex 61.81172867510452 69.5 6
endloop
endfacet
facet normal 0 -1 0
outer loop
vertex 85 69.5 0
vertex 61.81172867510452 69.5 6
vertex 61.81172867510452 69.5 0
endloop
endfacet
endsolid csg.js
